<mxfile host="Electron" modified="2023-06-12T11:00:01.704Z" agent="Mozilla/5.0 (Windows NT 10.0; Win64; x64) AppleWebKit/537.36 (KHTML, like Gecko) draw.io/21.2.8 Chrome/112.0.5615.165 Electron/24.2.0 Safari/537.36" etag="ceyiGSUV_guWu73I-cgj" version="21.2.8" type="device">
  <diagram id="G_Da_csA0Vt_yZuPptdN" name="Page-1">
    <mxGraphModel dx="2393" dy="1813" grid="1" gridSize="10" guides="0" tooltips="1" connect="1" arrows="1" fold="1" page="1" pageScale="1" pageWidth="850" pageHeight="1100" math="0" shadow="0">
      <root>
        <mxCell id="0" />
        <mxCell id="1" parent="0" />
        <mxCell id="tE9FmHmqxmhy-zkVICbS-114" style="edgeStyle=orthogonalEdgeStyle;rounded=0;orthogonalLoop=1;jettySize=auto;html=1;entryX=0;entryY=0.3333333333333333;entryDx=0;entryDy=0;entryPerimeter=0;fillColor=#ffe6cc;strokeColor=#d79b00;strokeWidth=2;" parent="1" edge="1">
          <mxGeometry relative="1" as="geometry">
            <mxPoint x="101" y="510" as="sourcePoint" />
            <mxPoint x="635" y="70" as="targetPoint" />
            <Array as="points">
              <mxPoint x="95" y="510" />
              <mxPoint x="95" y="70" />
            </Array>
          </mxGeometry>
        </mxCell>
        <mxCell id="9qw-OU29LHggYgpgFnPX-1" value="Guest2" style="shape=umlActor;verticalLabelPosition=bottom;verticalAlign=top;html=1;outlineConnect=0;" parent="1" vertex="1">
          <mxGeometry x="111" y="490" width="30" height="60" as="geometry" />
        </mxCell>
        <mxCell id="9qw-OU29LHggYgpgFnPX-3" value="" style="rounded=0;whiteSpace=wrap;html=1;" parent="1" vertex="1">
          <mxGeometry x="221" y="160" width="1200" height="3610" as="geometry" />
        </mxCell>
        <mxCell id="9qw-OU29LHggYgpgFnPX-2" value="Pregled Tura" style="ellipse;whiteSpace=wrap;html=1;" parent="1" vertex="1">
          <mxGeometry x="261" y="180" width="130" height="40" as="geometry" />
        </mxCell>
        <mxCell id="9RwmldyZn9qF8lHCk9Uj-1" value="Pregled Karata" style="ellipse;whiteSpace=wrap;html=1;" parent="1" vertex="1">
          <mxGeometry x="261" y="320" width="140" height="40" as="geometry" />
        </mxCell>
        <mxCell id="9RwmldyZn9qF8lHCk9Uj-2" value="Pregled Vaučera" style="ellipse;whiteSpace=wrap;html=1;" parent="1" vertex="1">
          <mxGeometry x="241" y="460" width="140" height="70" as="geometry" />
        </mxCell>
        <mxCell id="9RwmldyZn9qF8lHCk9Uj-3" value="Pregled Zahteva za turu" style="ellipse;whiteSpace=wrap;html=1;" parent="1" vertex="1">
          <mxGeometry x="241" y="540" width="140" height="70" as="geometry" />
        </mxCell>
        <mxCell id="9RwmldyZn9qF8lHCk9Uj-4" value="Guest1" style="shape=umlActor;verticalLabelPosition=bottom;verticalAlign=top;html=1;outlineConnect=0;" parent="1" vertex="1">
          <mxGeometry x="121" y="2450" width="30" height="60" as="geometry" />
        </mxCell>
        <mxCell id="9RwmldyZn9qF8lHCk9Uj-6" value="Rezervisanje Tura (kreiranje Karte)" style="ellipse;whiteSpace=wrap;html=1;" parent="1" vertex="1">
          <mxGeometry x="261" y="260" width="130" height="50" as="geometry" />
        </mxCell>
        <mxCell id="9RwmldyZn9qF8lHCk9Uj-8" value="Menjanje Karte" style="ellipse;whiteSpace=wrap;html=1;" parent="1" vertex="1">
          <mxGeometry x="401" y="360" width="100" height="30" as="geometry" />
        </mxCell>
        <mxCell id="9RwmldyZn9qF8lHCk9Uj-9" value="Pregled Profila" style="ellipse;whiteSpace=wrap;html=1;" parent="1" vertex="1">
          <mxGeometry x="621" y="170" width="70" height="50" as="geometry" />
        </mxCell>
        <mxCell id="9RwmldyZn9qF8lHCk9Uj-10" value="Korišćenje Vaučera" style="ellipse;whiteSpace=wrap;html=1;" parent="1" vertex="1">
          <mxGeometry x="461" y="264" width="100" height="40" as="geometry" />
        </mxCell>
        <mxCell id="9RwmldyZn9qF8lHCk9Uj-11" value="Zahtev za kreiranje PDF izveštaja" style="ellipse;whiteSpace=wrap;html=1;" parent="1" vertex="1">
          <mxGeometry x="701" y="170" width="100" height="60" as="geometry" />
        </mxCell>
        <mxCell id="9RwmldyZn9qF8lHCk9Uj-12" value="Pregled&amp;nbsp;Notifikacija" style="ellipse;whiteSpace=wrap;html=1;" parent="1" vertex="1">
          <mxGeometry x="231" y="810" width="140" height="40" as="geometry" />
        </mxCell>
        <mxCell id="9RwmldyZn9qF8lHCk9Uj-13" value="Kreiranje&amp;nbsp;&lt;br&gt;Zahteva za turu" style="ellipse;whiteSpace=wrap;html=1;" parent="1" vertex="1">
          <mxGeometry x="381" y="585" width="140" height="70" as="geometry" />
        </mxCell>
        <mxCell id="9RwmldyZn9qF8lHCk9Uj-14" value="Pregled statistike o&amp;nbsp;&lt;br&gt;Zahtevima" style="ellipse;whiteSpace=wrap;html=1;" parent="1" vertex="1">
          <mxGeometry x="231" y="640" width="140" height="70" as="geometry" />
        </mxCell>
        <mxCell id="9RwmldyZn9qF8lHCk9Uj-15" value="Pregled&amp;nbsp;&lt;br&gt;Kompleksnih zahteva za turu" style="ellipse;whiteSpace=wrap;html=1;" parent="1" vertex="1">
          <mxGeometry x="231" y="720" width="140" height="70" as="geometry" />
        </mxCell>
        <mxCell id="9RwmldyZn9qF8lHCk9Uj-16" value="Kreiranje &lt;br&gt;Kompleksnih zahteva za turu" style="ellipse;whiteSpace=wrap;html=1;" parent="1" vertex="1">
          <mxGeometry x="391" y="760" width="140" height="70" as="geometry" />
        </mxCell>
        <mxCell id="9RwmldyZn9qF8lHCk9Uj-17" value="Brisanje&amp;nbsp;Notifikacija" style="ellipse;whiteSpace=wrap;html=1;" parent="1" vertex="1">
          <mxGeometry x="241" y="870" width="140" height="70" as="geometry" />
        </mxCell>
        <mxCell id="9RwmldyZn9qF8lHCk9Uj-18" value="Pregled trenutno pokrenute karte" style="ellipse;whiteSpace=wrap;html=1;" parent="1" vertex="1">
          <mxGeometry x="251" y="380" width="140" height="70" as="geometry" />
        </mxCell>
        <mxCell id="9RwmldyZn9qF8lHCk9Uj-19" value="Pretraživanje Tura" style="ellipse;whiteSpace=wrap;html=1;" parent="1" vertex="1">
          <mxGeometry x="431" y="180" width="110" height="40" as="geometry" />
        </mxCell>
        <mxCell id="9RwmldyZn9qF8lHCk9Uj-21" value="Pregled Smeštaja" style="ellipse;whiteSpace=wrap;html=1;" parent="1" vertex="1">
          <mxGeometry x="261" y="2120" width="140" height="70" as="geometry" />
        </mxCell>
        <mxCell id="9RwmldyZn9qF8lHCk9Uj-22" value="Pregled korisnikovih Rezervacija" style="ellipse;whiteSpace=wrap;html=1;" parent="1" vertex="1">
          <mxGeometry x="271" y="2290" width="140" height="70" as="geometry" />
        </mxCell>
        <mxCell id="9RwmldyZn9qF8lHCk9Uj-23" value="Dodeljivanje statusa&lt;br&gt;Super Gosta" style="ellipse;whiteSpace=wrap;html=1;" parent="1" vertex="1">
          <mxGeometry x="851" y="2200" width="100" height="70" as="geometry" />
        </mxCell>
        <mxCell id="9RwmldyZn9qF8lHCk9Uj-24" value="Bilo kad - bilo gde" style="ellipse;whiteSpace=wrap;html=1;" parent="1" vertex="1">
          <mxGeometry x="271" y="2590" width="160" height="40" as="geometry" />
        </mxCell>
        <mxCell id="9RwmldyZn9qF8lHCk9Uj-25" value="Rezervisanje Smeštaja (kreiranje Rezervacije)" style="ellipse;whiteSpace=wrap;html=1;" parent="1" vertex="1">
          <mxGeometry x="261" y="2210" width="140" height="70" as="geometry" />
        </mxCell>
        <mxCell id="9RwmldyZn9qF8lHCk9Uj-26" value="Otkazivanje Rezervacije" style="ellipse;whiteSpace=wrap;html=1;" parent="1" vertex="1">
          <mxGeometry x="281" y="2420" width="140" height="40" as="geometry" />
        </mxCell>
        <mxCell id="9RwmldyZn9qF8lHCk9Uj-27" value="Pomeranje Rezervacije" style="ellipse;whiteSpace=wrap;html=1;" parent="1" vertex="1">
          <mxGeometry x="261" y="2370" width="160" height="40" as="geometry" />
        </mxCell>
        <mxCell id="9RwmldyZn9qF8lHCk9Uj-31" value="Pregled Foruma" style="ellipse;whiteSpace=wrap;html=1;" parent="1" vertex="1">
          <mxGeometry x="251" y="2760" width="140" height="30" as="geometry" />
        </mxCell>
        <mxCell id="9RwmldyZn9qF8lHCk9Uj-36" value="Ostavljanje komentara na Forumu" style="ellipse;whiteSpace=wrap;html=1;" parent="1" vertex="1">
          <mxGeometry x="251" y="2700" width="160" height="50" as="geometry" />
        </mxCell>
        <mxCell id="9RwmldyZn9qF8lHCk9Uj-38" value="Pretraživanje Smeštaja" style="ellipse;whiteSpace=wrap;html=1;" parent="1" vertex="1">
          <mxGeometry x="481" y="2600" width="90" height="50" as="geometry" />
        </mxCell>
        <mxCell id="9RwmldyZn9qF8lHCk9Uj-39" value="Kreiranje ocene za karte kojoj je prisustvovao" style="ellipse;whiteSpace=wrap;html=1;" parent="1" vertex="1">
          <mxGeometry x="481" y="480" width="140" height="70" as="geometry" />
        </mxCell>
        <mxCell id="9RwmldyZn9qF8lHCk9Uj-42" value="Otvaranje Foruma" style="ellipse;whiteSpace=wrap;html=1;" parent="1" vertex="1">
          <mxGeometry x="281" y="2640" width="120" height="50" as="geometry" />
        </mxCell>
        <mxCell id="9RwmldyZn9qF8lHCk9Uj-43" value="Kreiranje ocene za Smeštaj u kom je boravio" style="ellipse;whiteSpace=wrap;html=1;" parent="1" vertex="1">
          <mxGeometry x="271" y="2470" width="120" height="70" as="geometry" />
        </mxCell>
        <mxCell id="9RwmldyZn9qF8lHCk9Uj-44" value="Kreiranje preporuke za renovaciju Smeštaja u kom je boravio" style="ellipse;whiteSpace=wrap;html=1;" parent="1" vertex="1">
          <mxGeometry x="471" y="2510" width="150" height="70" as="geometry" />
        </mxCell>
        <mxCell id="9RwmldyZn9qF8lHCk9Uj-47" value="Pregled Super Vlasnika Smeštaja" style="ellipse;whiteSpace=wrap;html=1;" parent="1" vertex="1">
          <mxGeometry x="571" y="2180" width="140" height="70" as="geometry" />
        </mxCell>
        <mxCell id="9RwmldyZn9qF8lHCk9Uj-51" value="Sistem" style="shape=umlActor;verticalLabelPosition=bottom;verticalAlign=top;html=1;outlineConnect=0;" parent="1" vertex="1">
          <mxGeometry x="1591" y="2060" width="30" height="60" as="geometry" />
        </mxCell>
        <mxCell id="9RwmldyZn9qF8lHCk9Uj-52" value="Prijava" style="ellipse;whiteSpace=wrap;html=1;" parent="1" vertex="1">
          <mxGeometry x="811" y="170" width="60" height="40" as="geometry" />
        </mxCell>
        <mxCell id="9RwmldyZn9qF8lHCk9Uj-53" value="Prijavljen Korisnik" style="shape=umlActor;verticalLabelPosition=bottom;verticalAlign=top;html=1;outlineConnect=0;" parent="1" vertex="1">
          <mxGeometry x="651" y="50" width="30" height="60" as="geometry" />
        </mxCell>
        <mxCell id="9RwmldyZn9qF8lHCk9Uj-55" value="" style="endArrow=none;html=1;rounded=0;entryX=0;entryY=0.5;entryDx=0;entryDy=0;exitX=1;exitY=0.3333333333333333;exitDx=0;exitDy=0;exitPerimeter=0;" parent="1" source="9qw-OU29LHggYgpgFnPX-1" target="9qw-OU29LHggYgpgFnPX-2" edge="1">
          <mxGeometry width="50" height="50" relative="1" as="geometry">
            <mxPoint x="151" y="140" as="sourcePoint" />
            <mxPoint x="201" y="90" as="targetPoint" />
          </mxGeometry>
        </mxCell>
        <mxCell id="9RwmldyZn9qF8lHCk9Uj-56" value="" style="endArrow=none;html=1;rounded=0;entryX=0;entryY=0.5;entryDx=0;entryDy=0;exitX=1;exitY=0.3333333333333333;exitDx=0;exitDy=0;exitPerimeter=0;" parent="1" source="9qw-OU29LHggYgpgFnPX-1" target="9RwmldyZn9qF8lHCk9Uj-6" edge="1">
          <mxGeometry width="50" height="50" relative="1" as="geometry">
            <mxPoint x="171" y="190" as="sourcePoint" />
            <mxPoint x="271.00000000000034" y="210" as="targetPoint" />
          </mxGeometry>
        </mxCell>
        <mxCell id="9RwmldyZn9qF8lHCk9Uj-57" value="" style="endArrow=none;html=1;rounded=0;entryX=0;entryY=0.5;entryDx=0;entryDy=0;exitX=1;exitY=0.3333333333333333;exitDx=0;exitDy=0;exitPerimeter=0;" parent="1" source="9qw-OU29LHggYgpgFnPX-1" target="9RwmldyZn9qF8lHCk9Uj-1" edge="1">
          <mxGeometry width="50" height="50" relative="1" as="geometry">
            <mxPoint x="161" y="180" as="sourcePoint" />
            <mxPoint x="281.00000000000034" y="220" as="targetPoint" />
          </mxGeometry>
        </mxCell>
        <mxCell id="9RwmldyZn9qF8lHCk9Uj-58" value="" style="endArrow=none;html=1;rounded=0;entryX=0;entryY=0.5;entryDx=0;entryDy=0;exitX=1;exitY=0.3333333333333333;exitDx=0;exitDy=0;exitPerimeter=0;" parent="1" source="9qw-OU29LHggYgpgFnPX-1" target="9RwmldyZn9qF8lHCk9Uj-19" edge="1">
          <mxGeometry width="50" height="50" relative="1" as="geometry">
            <mxPoint x="161" y="180" as="sourcePoint" />
            <mxPoint x="271.00000000000045" y="385" as="targetPoint" />
            <Array as="points">
              <mxPoint x="251" y="250" />
              <mxPoint x="391" y="250" />
            </Array>
          </mxGeometry>
        </mxCell>
        <mxCell id="9RwmldyZn9qF8lHCk9Uj-59" value="" style="endArrow=none;html=1;rounded=0;entryX=0;entryY=0.5;entryDx=0;entryDy=0;exitX=1;exitY=0.3333333333333333;exitDx=0;exitDy=0;exitPerimeter=0;" parent="1" source="9qw-OU29LHggYgpgFnPX-1" target="9RwmldyZn9qF8lHCk9Uj-2" edge="1">
          <mxGeometry width="50" height="50" relative="1" as="geometry">
            <mxPoint x="161" y="520" as="sourcePoint" />
            <mxPoint x="141" y="410" as="targetPoint" />
          </mxGeometry>
        </mxCell>
        <mxCell id="9RwmldyZn9qF8lHCk9Uj-60" value="" style="endArrow=none;html=1;rounded=0;entryX=0;entryY=0.5;entryDx=0;entryDy=0;exitX=1;exitY=0.3333333333333333;exitDx=0;exitDy=0;exitPerimeter=0;" parent="1" source="9qw-OU29LHggYgpgFnPX-1" target="9RwmldyZn9qF8lHCk9Uj-18" edge="1">
          <mxGeometry width="50" height="50" relative="1" as="geometry">
            <mxPoint x="160.99999999999977" y="549.9999999999998" as="sourcePoint" />
            <mxPoint x="260.9999999999998" y="565" as="targetPoint" />
          </mxGeometry>
        </mxCell>
        <mxCell id="9RwmldyZn9qF8lHCk9Uj-61" value="" style="endArrow=none;html=1;rounded=0;entryX=0;entryY=0.5;entryDx=0;entryDy=0;exitX=1;exitY=0.3333333333333333;exitDx=0;exitDy=0;exitPerimeter=0;" parent="1" source="9qw-OU29LHggYgpgFnPX-1" target="9RwmldyZn9qF8lHCk9Uj-3" edge="1">
          <mxGeometry width="50" height="50" relative="1" as="geometry">
            <mxPoint x="170.99999999999977" y="559.9999999999998" as="sourcePoint" />
            <mxPoint x="270.9999999999998" y="575" as="targetPoint" />
          </mxGeometry>
        </mxCell>
        <mxCell id="9RwmldyZn9qF8lHCk9Uj-62" value="" style="endArrow=none;html=1;rounded=0;entryX=0;entryY=0.5;entryDx=0;entryDy=0;exitX=1;exitY=0.3333333333333333;exitDx=0;exitDy=0;exitPerimeter=0;" parent="1" source="9qw-OU29LHggYgpgFnPX-1" target="9RwmldyZn9qF8lHCk9Uj-13" edge="1">
          <mxGeometry width="50" height="50" relative="1" as="geometry">
            <mxPoint x="180.99999999999977" y="569.9999999999998" as="sourcePoint" />
            <mxPoint x="280.9999999999998" y="585" as="targetPoint" />
            <Array as="points">
              <mxPoint x="231" y="620" />
            </Array>
          </mxGeometry>
        </mxCell>
        <mxCell id="9RwmldyZn9qF8lHCk9Uj-63" value="" style="endArrow=none;html=1;rounded=0;entryX=0;entryY=0.5;entryDx=0;entryDy=0;exitX=1;exitY=1;exitDx=0;exitDy=0;exitPerimeter=0;" parent="1" source="9qw-OU29LHggYgpgFnPX-1" target="9RwmldyZn9qF8lHCk9Uj-15" edge="1">
          <mxGeometry width="50" height="50" relative="1" as="geometry">
            <mxPoint x="161" y="650" as="sourcePoint" />
            <mxPoint x="290.9999999999998" y="595" as="targetPoint" />
          </mxGeometry>
        </mxCell>
        <mxCell id="9RwmldyZn9qF8lHCk9Uj-64" value="" style="endArrow=none;html=1;rounded=0;entryX=0;entryY=0.5;entryDx=0;entryDy=0;exitX=1;exitY=1;exitDx=0;exitDy=0;exitPerimeter=0;" parent="1" source="9qw-OU29LHggYgpgFnPX-1" target="9RwmldyZn9qF8lHCk9Uj-16" edge="1">
          <mxGeometry width="50" height="50" relative="1" as="geometry">
            <mxPoint x="100.99999999999977" y="739.9999999999998" as="sourcePoint" />
            <mxPoint x="200.99999999999977" y="755" as="targetPoint" />
            <Array as="points">
              <mxPoint x="201" y="790" />
            </Array>
          </mxGeometry>
        </mxCell>
        <mxCell id="9RwmldyZn9qF8lHCk9Uj-66" value="" style="endArrow=none;html=1;rounded=0;entryX=1;entryY=0.3333333333333333;entryDx=0;entryDy=0;exitX=0.5;exitY=0;exitDx=0;exitDy=0;entryPerimeter=0;" parent="1" source="9RwmldyZn9qF8lHCk9Uj-52" target="tE9FmHmqxmhy-zkVICbS-168" edge="1">
          <mxGeometry width="50" height="50" relative="1" as="geometry">
            <mxPoint x="740.9999999999998" y="39.99999999999977" as="sourcePoint" />
            <mxPoint x="840.9999999999998" y="55" as="targetPoint" />
          </mxGeometry>
        </mxCell>
        <mxCell id="9RwmldyZn9qF8lHCk9Uj-67" value="" style="endArrow=none;html=1;rounded=0;entryX=1;entryY=0.3333333333333333;entryDx=0;entryDy=0;exitX=0.5;exitY=0;exitDx=0;exitDy=0;entryPerimeter=0;" parent="1" source="9RwmldyZn9qF8lHCk9Uj-9" target="9RwmldyZn9qF8lHCk9Uj-53" edge="1">
          <mxGeometry width="50" height="50" relative="1" as="geometry">
            <mxPoint x="820.9999999999998" y="39.99999999999977" as="sourcePoint" />
            <mxPoint x="920.9999999999998" y="55" as="targetPoint" />
          </mxGeometry>
        </mxCell>
        <mxCell id="9RwmldyZn9qF8lHCk9Uj-68" value="" style="endArrow=none;html=1;rounded=0;entryX=0.5;entryY=0;entryDx=0;entryDy=0;exitX=1;exitY=0.3333333333333333;exitDx=0;exitDy=0;exitPerimeter=0;" parent="1" source="9RwmldyZn9qF8lHCk9Uj-53" target="9RwmldyZn9qF8lHCk9Uj-11" edge="1">
          <mxGeometry width="50" height="50" relative="1" as="geometry">
            <mxPoint x="1030.9999999999998" y="79.99999999999977" as="sourcePoint" />
            <mxPoint x="1130.9999999999998" y="95" as="targetPoint" />
          </mxGeometry>
        </mxCell>
        <mxCell id="9RwmldyZn9qF8lHCk9Uj-69" value="" style="endArrow=none;html=1;rounded=0;entryX=0;entryY=0.5;entryDx=0;entryDy=0;exitX=1;exitY=1;exitDx=0;exitDy=0;exitPerimeter=0;" parent="1" source="9qw-OU29LHggYgpgFnPX-1" target="9RwmldyZn9qF8lHCk9Uj-12" edge="1">
          <mxGeometry width="50" height="50" relative="1" as="geometry">
            <mxPoint x="131" y="780" as="sourcePoint" />
            <mxPoint x="200.99999999999977" y="895" as="targetPoint" />
            <Array as="points">
              <mxPoint x="181" y="810" />
            </Array>
          </mxGeometry>
        </mxCell>
        <mxCell id="9RwmldyZn9qF8lHCk9Uj-70" value="" style="endArrow=none;html=1;rounded=0;entryX=0;entryY=0.5;entryDx=0;entryDy=0;exitX=0;exitY=1;exitDx=0;exitDy=0;exitPerimeter=0;" parent="1" source="9qw-OU29LHggYgpgFnPX-1" target="9RwmldyZn9qF8lHCk9Uj-17" edge="1">
          <mxGeometry width="50" height="50" relative="1" as="geometry">
            <mxPoint x="111" y="610" as="sourcePoint" />
            <mxPoint x="211" y="955" as="targetPoint" />
            <Array as="points">
              <mxPoint x="171" y="860" />
            </Array>
          </mxGeometry>
        </mxCell>
        <mxCell id="9RwmldyZn9qF8lHCk9Uj-71" value="&amp;lt;&amp;lt;extend&amp;gt;&amp;gt;" style="html=1;verticalAlign=bottom;labelBackgroundColor=none;endArrow=none;endFill=0;dashed=1;rounded=0;exitX=1;exitY=0.5;exitDx=0;exitDy=0;entryX=0;entryY=0.5;entryDx=0;entryDy=0;startArrow=open;startFill=0;" parent="1" source="9RwmldyZn9qF8lHCk9Uj-6" target="9RwmldyZn9qF8lHCk9Uj-10" edge="1">
          <mxGeometry width="160" relative="1" as="geometry">
            <mxPoint x="401" y="270" as="sourcePoint" />
            <mxPoint x="561.0000000000002" y="270" as="targetPoint" />
            <mxPoint as="offset" />
          </mxGeometry>
        </mxCell>
        <mxCell id="9RwmldyZn9qF8lHCk9Uj-73" value="" style="endArrow=none;html=1;rounded=0;entryX=0;entryY=0.3333333333333333;entryDx=0;entryDy=0;entryPerimeter=0;exitX=0;exitY=0.5;exitDx=0;exitDy=0;" parent="1" source="9RwmldyZn9qF8lHCk9Uj-21" target="9RwmldyZn9qF8lHCk9Uj-4" edge="1">
          <mxGeometry width="50" height="50" relative="1" as="geometry">
            <mxPoint x="241" y="2060" as="sourcePoint" />
            <mxPoint x="291" y="2010" as="targetPoint" />
          </mxGeometry>
        </mxCell>
        <mxCell id="9RwmldyZn9qF8lHCk9Uj-74" value="" style="endArrow=none;html=1;rounded=0;entryX=0;entryY=0.3333333333333333;entryDx=0;entryDy=0;entryPerimeter=0;exitX=0;exitY=0.5;exitDx=0;exitDy=0;" parent="1" source="9RwmldyZn9qF8lHCk9Uj-25" target="9RwmldyZn9qF8lHCk9Uj-4" edge="1">
          <mxGeometry width="50" height="50" relative="1" as="geometry">
            <mxPoint x="441" y="2030" as="sourcePoint" />
            <mxPoint x="531" y="2095" as="targetPoint" />
          </mxGeometry>
        </mxCell>
        <mxCell id="9RwmldyZn9qF8lHCk9Uj-76" value="" style="endArrow=none;html=1;rounded=0;entryX=0;entryY=0.5;entryDx=0;entryDy=0;exitX=0;exitY=0.3333333333333333;exitDx=0;exitDy=0;exitPerimeter=0;" parent="1" source="9RwmldyZn9qF8lHCk9Uj-4" target="9RwmldyZn9qF8lHCk9Uj-22" edge="1">
          <mxGeometry width="50" height="50" relative="1" as="geometry">
            <mxPoint x="511" y="2330" as="sourcePoint" />
            <mxPoint x="601" y="2395" as="targetPoint" />
          </mxGeometry>
        </mxCell>
        <mxCell id="9RwmldyZn9qF8lHCk9Uj-77" value="" style="endArrow=none;html=1;rounded=0;entryX=0;entryY=0.5;entryDx=0;entryDy=0;exitX=0;exitY=0.3333333333333333;exitDx=0;exitDy=0;exitPerimeter=0;" parent="1" source="9RwmldyZn9qF8lHCk9Uj-4" target="9RwmldyZn9qF8lHCk9Uj-31" edge="1">
          <mxGeometry width="50" height="50" relative="1" as="geometry">
            <mxPoint x="551" y="2470" as="sourcePoint" />
            <mxPoint x="641" y="2535" as="targetPoint" />
          </mxGeometry>
        </mxCell>
        <mxCell id="9RwmldyZn9qF8lHCk9Uj-79" value="&amp;lt;&amp;lt;include&amp;gt;&amp;gt;" style="html=1;verticalAlign=bottom;labelBackgroundColor=none;endArrow=none;endFill=0;dashed=1;rounded=0;entryX=1;entryY=0.5;entryDx=0;entryDy=0;exitX=0;exitY=0.5;exitDx=0;exitDy=0;startArrow=open;startFill=0;" parent="1" source="9RwmldyZn9qF8lHCk9Uj-47" target="9RwmldyZn9qF8lHCk9Uj-21" edge="1">
          <mxGeometry width="160" relative="1" as="geometry">
            <mxPoint x="91" y="2240" as="sourcePoint" />
            <mxPoint x="251" y="2240" as="targetPoint" />
            <mxPoint as="offset" />
            <Array as="points">
              <mxPoint x="531" y="2210" />
            </Array>
          </mxGeometry>
        </mxCell>
        <mxCell id="9RwmldyZn9qF8lHCk9Uj-82" value="" style="endArrow=none;html=1;rounded=0;entryX=0;entryY=0.5;entryDx=0;entryDy=0;exitX=0;exitY=0.3333333333333333;exitDx=0;exitDy=0;exitPerimeter=0;" parent="1" source="9RwmldyZn9qF8lHCk9Uj-4" target="9RwmldyZn9qF8lHCk9Uj-36" edge="1">
          <mxGeometry width="50" height="50" relative="1" as="geometry">
            <mxPoint x="471" y="2540" as="sourcePoint" />
            <mxPoint x="501" y="2735" as="targetPoint" />
            <Array as="points" />
          </mxGeometry>
        </mxCell>
        <mxCell id="9RwmldyZn9qF8lHCk9Uj-83" value="" style="endArrow=none;html=1;rounded=0;entryX=0;entryY=0.5;entryDx=0;entryDy=0;exitX=0;exitY=0.3333333333333333;exitDx=0;exitDy=0;exitPerimeter=0;" parent="1" source="9RwmldyZn9qF8lHCk9Uj-4" target="9RwmldyZn9qF8lHCk9Uj-24" edge="1">
          <mxGeometry width="50" height="50" relative="1" as="geometry">
            <mxPoint x="491" y="2610" as="sourcePoint" />
            <mxPoint x="491" y="2785" as="targetPoint" />
          </mxGeometry>
        </mxCell>
        <mxCell id="9RwmldyZn9qF8lHCk9Uj-84" value="" style="endArrow=none;html=1;rounded=0;entryX=0;entryY=0.3333333333333333;entryDx=0;entryDy=0;entryPerimeter=0;exitX=0;exitY=0.5;exitDx=0;exitDy=0;" parent="1" source="9RwmldyZn9qF8lHCk9Uj-27" target="9RwmldyZn9qF8lHCk9Uj-4" edge="1">
          <mxGeometry width="50" height="50" relative="1" as="geometry">
            <mxPoint x="421" y="2450" as="sourcePoint" />
            <mxPoint x="421" y="2625" as="targetPoint" />
          </mxGeometry>
        </mxCell>
        <mxCell id="9RwmldyZn9qF8lHCk9Uj-85" value="" style="endArrow=none;html=1;rounded=0;entryX=0;entryY=0.3333333333333333;entryDx=0;entryDy=0;entryPerimeter=0;exitX=0;exitY=0.5;exitDx=0;exitDy=0;" parent="1" source="9RwmldyZn9qF8lHCk9Uj-26" target="9RwmldyZn9qF8lHCk9Uj-4" edge="1">
          <mxGeometry width="50" height="50" relative="1" as="geometry">
            <mxPoint x="561" y="2600" as="sourcePoint" />
            <mxPoint x="561" y="2775" as="targetPoint" />
          </mxGeometry>
        </mxCell>
        <mxCell id="9RwmldyZn9qF8lHCk9Uj-86" value="" style="endArrow=none;html=1;rounded=0;entryX=0;entryY=0.5;entryDx=0;entryDy=0;exitX=0;exitY=0.3333333333333333;exitDx=0;exitDy=0;exitPerimeter=0;" parent="1" source="9RwmldyZn9qF8lHCk9Uj-4" target="9RwmldyZn9qF8lHCk9Uj-43" edge="1">
          <mxGeometry width="50" height="50" relative="1" as="geometry">
            <mxPoint x="531" y="2590" as="sourcePoint" />
            <mxPoint x="531" y="2765" as="targetPoint" />
          </mxGeometry>
        </mxCell>
        <mxCell id="9RwmldyZn9qF8lHCk9Uj-87" value="" style="endArrow=none;html=1;rounded=0;entryX=0;entryY=0.5;entryDx=0;entryDy=0;exitX=0;exitY=0.3333333333333333;exitDx=0;exitDy=0;exitPerimeter=0;" parent="1" source="9RwmldyZn9qF8lHCk9Uj-4" target="9RwmldyZn9qF8lHCk9Uj-42" edge="1">
          <mxGeometry width="50" height="50" relative="1" as="geometry">
            <mxPoint x="551" y="2660" as="sourcePoint" />
            <mxPoint x="551" y="2835" as="targetPoint" />
          </mxGeometry>
        </mxCell>
        <mxCell id="9RwmldyZn9qF8lHCk9Uj-90" value="Promena statusa Vaučera" style="ellipse;whiteSpace=wrap;html=1;" parent="1" vertex="1">
          <mxGeometry x="1210" y="260" width="120" height="70" as="geometry" />
        </mxCell>
        <mxCell id="9RwmldyZn9qF8lHCk9Uj-91" value="Dodela Vaučera" style="ellipse;whiteSpace=wrap;html=1;" parent="1" vertex="1">
          <mxGeometry x="921" y="1910" width="80" height="60" as="geometry" />
        </mxCell>
        <mxCell id="9RwmldyZn9qF8lHCk9Uj-93" value="Kreiranje Notifikacije" style="ellipse;whiteSpace=wrap;html=1;" parent="1" vertex="1">
          <mxGeometry x="880" y="1970" width="100" height="60" as="geometry" />
        </mxCell>
        <mxCell id="tE9FmHmqxmhy-zkVICbS-115" style="edgeStyle=orthogonalEdgeStyle;rounded=0;orthogonalLoop=1;jettySize=auto;html=1;fillColor=#ffe6cc;strokeColor=#d79b00;strokeWidth=2;" parent="1" edge="1">
          <mxGeometry relative="1" as="geometry">
            <mxPoint x="631" y="60" as="targetPoint" />
            <mxPoint x="111" y="1686" as="sourcePoint" />
            <Array as="points">
              <mxPoint x="41" y="1686" />
              <mxPoint x="41" y="60" />
              <mxPoint x="91" y="60" />
            </Array>
          </mxGeometry>
        </mxCell>
        <mxCell id="tE9FmHmqxmhy-zkVICbS-2" value="Prijavljeni vodič" style="shape=umlActor;verticalLabelPosition=bottom;verticalAlign=top;html=1;" parent="1" vertex="1">
          <mxGeometry x="125" y="1666" width="30" height="60" as="geometry" />
        </mxCell>
        <mxCell id="tE9FmHmqxmhy-zkVICbS-3" value="" style="ellipse;whiteSpace=wrap;html=1;" parent="1" vertex="1">
          <mxGeometry x="332.5" y="1656" width="120" height="60" as="geometry" />
        </mxCell>
        <mxCell id="tE9FmHmqxmhy-zkVICbS-4" value="Kreiranje nove ture" style="text;html=1;strokeColor=none;fillColor=none;align=center;verticalAlign=middle;whiteSpace=wrap;rounded=0;" parent="1" vertex="1">
          <mxGeometry x="362.5" y="1671" width="60" height="30" as="geometry" />
        </mxCell>
        <mxCell id="tE9FmHmqxmhy-zkVICbS-5" value="" style="endArrow=none;html=1;rounded=0;exitX=1;exitY=0.3333333333333333;exitDx=0;exitDy=0;exitPerimeter=0;entryX=0;entryY=0.5;entryDx=0;entryDy=0;" parent="1" source="tE9FmHmqxmhy-zkVICbS-2" target="tE9FmHmqxmhy-zkVICbS-3" edge="1">
          <mxGeometry width="50" height="50" relative="1" as="geometry">
            <mxPoint x="270" y="1656" as="sourcePoint" />
            <mxPoint x="320" y="1606" as="targetPoint" />
            <Array as="points" />
          </mxGeometry>
        </mxCell>
        <mxCell id="tE9FmHmqxmhy-zkVICbS-6" value="" style="endArrow=none;html=1;rounded=0;entryX=0.004;entryY=0.365;entryDx=0;entryDy=0;entryPerimeter=0;" parent="1" target="tE9FmHmqxmhy-zkVICbS-17" edge="1">
          <mxGeometry width="50" height="50" relative="1" as="geometry">
            <mxPoint x="155" y="1686" as="sourcePoint" />
            <mxPoint x="320" y="1686" as="targetPoint" />
          </mxGeometry>
        </mxCell>
        <mxCell id="tE9FmHmqxmhy-zkVICbS-15" value="" style="ellipse;whiteSpace=wrap;html=1;" parent="1" vertex="1">
          <mxGeometry x="332.5" y="1816" width="120" height="60" as="geometry" />
        </mxCell>
        <mxCell id="tE9FmHmqxmhy-zkVICbS-16" value="" style="endArrow=none;html=1;rounded=0;entryX=0.014;entryY=0.398;entryDx=0;entryDy=0;entryPerimeter=0;" parent="1" target="tE9FmHmqxmhy-zkVICbS-15" edge="1">
          <mxGeometry width="50" height="50" relative="1" as="geometry">
            <mxPoint x="155" y="1686" as="sourcePoint" />
            <mxPoint x="330" y="1696" as="targetPoint" />
          </mxGeometry>
        </mxCell>
        <mxCell id="tE9FmHmqxmhy-zkVICbS-17" value="" style="ellipse;whiteSpace=wrap;html=1;" parent="1" vertex="1">
          <mxGeometry x="297.5" y="1736" width="120" height="60" as="geometry" />
        </mxCell>
        <mxCell id="tE9FmHmqxmhy-zkVICbS-18" value="Prihvatanje dela zahteva za kompleksnu turu" style="text;html=1;strokeColor=none;fillColor=none;align=center;verticalAlign=middle;whiteSpace=wrap;rounded=0;" parent="1" vertex="1">
          <mxGeometry x="345.5" y="1831" width="95" height="30" as="geometry" />
        </mxCell>
        <mxCell id="tE9FmHmqxmhy-zkVICbS-19" value="" style="endArrow=open;html=1;rounded=0;exitX=0.5;exitY=0;exitDx=0;exitDy=0;endFill=0;dashed=1;entryX=0.5;entryY=1;entryDx=0;entryDy=0;" parent="1" source="tE9FmHmqxmhy-zkVICbS-17" target="tE9FmHmqxmhy-zkVICbS-3" edge="1">
          <mxGeometry width="50" height="50" relative="1" as="geometry">
            <mxPoint x="392.5" y="1735.8899999999999" as="sourcePoint" />
            <mxPoint x="478.5" y="1796" as="targetPoint" />
          </mxGeometry>
        </mxCell>
        <mxCell id="tE9FmHmqxmhy-zkVICbS-20" value="Prihvatanje zahteva" style="text;html=1;strokeColor=none;fillColor=none;align=center;verticalAlign=middle;whiteSpace=wrap;rounded=0;" parent="1" vertex="1">
          <mxGeometry x="327.5" y="1751" width="60" height="30" as="geometry" />
        </mxCell>
        <mxCell id="tE9FmHmqxmhy-zkVICbS-21" value="&amp;lt;&amp;lt;include&amp;gt;&amp;gt;" style="text;html=1;strokeColor=none;fillColor=none;align=center;verticalAlign=middle;whiteSpace=wrap;rounded=0;" parent="1" vertex="1">
          <mxGeometry x="307.5" y="1716" width="60" height="20" as="geometry" />
        </mxCell>
        <mxCell id="tE9FmHmqxmhy-zkVICbS-22" value="" style="endArrow=open;html=1;rounded=0;exitX=0.667;exitY=0.005;exitDx=0;exitDy=0;endFill=0;dashed=1;entryX=0.586;entryY=0.996;entryDx=0;entryDy=0;exitPerimeter=0;entryPerimeter=0;" parent="1" source="tE9FmHmqxmhy-zkVICbS-15" target="tE9FmHmqxmhy-zkVICbS-17" edge="1">
          <mxGeometry width="50" height="50" relative="1" as="geometry">
            <mxPoint x="367.5" y="1746" as="sourcePoint" />
            <mxPoint x="402.5" y="1726" as="targetPoint" />
          </mxGeometry>
        </mxCell>
        <mxCell id="tE9FmHmqxmhy-zkVICbS-23" value="&amp;lt;&amp;lt;include&amp;gt;&amp;gt;" style="text;html=1;strokeColor=none;fillColor=none;align=center;verticalAlign=middle;whiteSpace=wrap;rounded=0;" parent="1" vertex="1">
          <mxGeometry x="392.5" y="1796" width="60" height="20" as="geometry" />
        </mxCell>
        <mxCell id="tE9FmHmqxmhy-zkVICbS-24" value="" style="ellipse;whiteSpace=wrap;html=1;" parent="1" vertex="1">
          <mxGeometry x="320.5" y="1896" width="120" height="60" as="geometry" />
        </mxCell>
        <mxCell id="tE9FmHmqxmhy-zkVICbS-25" value="Otkazivanje termina ture" style="text;html=1;strokeColor=none;fillColor=none;align=center;verticalAlign=middle;whiteSpace=wrap;rounded=0;" parent="1" vertex="1">
          <mxGeometry x="345.5" y="1911" width="67" height="30" as="geometry" />
        </mxCell>
        <mxCell id="tE9FmHmqxmhy-zkVICbS-26" value="" style="endArrow=none;html=1;rounded=0;entryX=0;entryY=0.5;entryDx=0;entryDy=0;" parent="1" target="tE9FmHmqxmhy-zkVICbS-24" edge="1">
          <mxGeometry width="50" height="50" relative="1" as="geometry">
            <mxPoint x="155" y="1686" as="sourcePoint" />
            <mxPoint x="332" y="1770" as="targetPoint" />
          </mxGeometry>
        </mxCell>
        <mxCell id="tE9FmHmqxmhy-zkVICbS-27" value="" style="ellipse;whiteSpace=wrap;html=1;" parent="1" vertex="1">
          <mxGeometry x="320.5" y="1976" width="120" height="60" as="geometry" />
        </mxCell>
        <mxCell id="tE9FmHmqxmhy-zkVICbS-28" value="Davanje otkaza" style="text;html=1;strokeColor=none;fillColor=none;align=center;verticalAlign=middle;whiteSpace=wrap;rounded=0;" parent="1" vertex="1">
          <mxGeometry x="345.5" y="1991" width="67" height="30" as="geometry" />
        </mxCell>
        <mxCell id="tE9FmHmqxmhy-zkVICbS-29" value="" style="endArrow=none;html=1;rounded=0;entryX=0.021;entryY=0.37;entryDx=0;entryDy=0;entryPerimeter=0;" parent="1" target="tE9FmHmqxmhy-zkVICbS-27" edge="1">
          <mxGeometry width="50" height="50" relative="1" as="geometry">
            <mxPoint x="155" y="1686" as="sourcePoint" />
            <mxPoint x="318" y="1856" as="targetPoint" />
          </mxGeometry>
        </mxCell>
        <mxCell id="tE9FmHmqxmhy-zkVICbS-32" value="" style="ellipse;whiteSpace=wrap;html=1;" parent="1" vertex="1">
          <mxGeometry x="321" y="1440" width="120" height="60" as="geometry" />
        </mxCell>
        <mxCell id="tE9FmHmqxmhy-zkVICbS-33" value="Pokretanje termina ture" style="text;html=1;strokeColor=none;fillColor=none;align=center;verticalAlign=middle;whiteSpace=wrap;rounded=0;" parent="1" vertex="1">
          <mxGeometry x="341" y="1450" width="74.5" height="30" as="geometry" />
        </mxCell>
        <mxCell id="tE9FmHmqxmhy-zkVICbS-34" value="" style="endArrow=none;html=1;rounded=0;entryX=0;entryY=0.5;entryDx=0;entryDy=0;" parent="1" target="tE9FmHmqxmhy-zkVICbS-32" edge="1">
          <mxGeometry width="50" height="50" relative="1" as="geometry">
            <mxPoint x="155" y="1686" as="sourcePoint" />
            <mxPoint x="360" y="1586" as="targetPoint" />
          </mxGeometry>
        </mxCell>
        <mxCell id="tE9FmHmqxmhy-zkVICbS-38" value="" style="ellipse;whiteSpace=wrap;html=1;" parent="1" vertex="1">
          <mxGeometry x="350.5" y="1286" width="120" height="60" as="geometry" />
        </mxCell>
        <mxCell id="tE9FmHmqxmhy-zkVICbS-39" value="Stopiranje termina ture" style="text;html=1;strokeColor=none;fillColor=none;align=center;verticalAlign=middle;whiteSpace=wrap;rounded=0;" parent="1" vertex="1">
          <mxGeometry x="373" y="1301" width="75.5" height="30" as="geometry" />
        </mxCell>
        <mxCell id="tE9FmHmqxmhy-zkVICbS-42" value="" style="endArrow=none;html=1;rounded=0;entryX=0.015;entryY=0.654;entryDx=0;entryDy=0;entryPerimeter=0;" parent="1" target="tE9FmHmqxmhy-zkVICbS-38" edge="1">
          <mxGeometry width="50" height="50" relative="1" as="geometry">
            <mxPoint x="155" y="1686" as="sourcePoint" />
            <mxPoint x="351" y="1351" as="targetPoint" />
          </mxGeometry>
        </mxCell>
        <mxCell id="tE9FmHmqxmhy-zkVICbS-46" value="" style="ellipse;whiteSpace=wrap;html=1;" parent="1" vertex="1">
          <mxGeometry x="345" y="1506" width="120" height="60" as="geometry" />
        </mxCell>
        <mxCell id="tE9FmHmqxmhy-zkVICbS-47" value="Provera prisustva gostiju" style="text;html=1;strokeColor=none;fillColor=none;align=center;verticalAlign=middle;whiteSpace=wrap;rounded=0;" parent="1" vertex="1">
          <mxGeometry x="375" y="1521" width="60" height="30" as="geometry" />
        </mxCell>
        <mxCell id="tE9FmHmqxmhy-zkVICbS-48" value="" style="endArrow=none;html=1;rounded=0;entryX=0;entryY=0.5;entryDx=0;entryDy=0;" parent="1" edge="1">
          <mxGeometry width="50" height="50" relative="1" as="geometry">
            <mxPoint x="155" y="1686" as="sourcePoint" />
            <mxPoint x="345" y="1541" as="targetPoint" />
            <Array as="points">
              <mxPoint x="255" y="1606" />
            </Array>
          </mxGeometry>
        </mxCell>
        <mxCell id="tE9FmHmqxmhy-zkVICbS-49" value="" style="ellipse;whiteSpace=wrap;html=1;" parent="1" vertex="1">
          <mxGeometry x="345" y="1196" width="120" height="60" as="geometry" />
        </mxCell>
        <mxCell id="tE9FmHmqxmhy-zkVICbS-50" value="Pregled statistike" style="text;html=1;strokeColor=none;fillColor=none;align=center;verticalAlign=middle;whiteSpace=wrap;rounded=0;" parent="1" vertex="1">
          <mxGeometry x="375" y="1211" width="60" height="30" as="geometry" />
        </mxCell>
        <mxCell id="tE9FmHmqxmhy-zkVICbS-51" value="" style="endArrow=none;html=1;rounded=0;entryX=0.036;entryY=0.693;entryDx=0;entryDy=0;entryPerimeter=0;" parent="1" target="tE9FmHmqxmhy-zkVICbS-49" edge="1">
          <mxGeometry width="50" height="50" relative="1" as="geometry">
            <mxPoint x="155" y="1686" as="sourcePoint" />
            <mxPoint x="350" y="1235.5" as="targetPoint" />
          </mxGeometry>
        </mxCell>
        <mxCell id="tE9FmHmqxmhy-zkVICbS-52" value="" style="ellipse;whiteSpace=wrap;html=1;" parent="1" vertex="1">
          <mxGeometry x="345" y="1116" width="120" height="60" as="geometry" />
        </mxCell>
        <mxCell id="tE9FmHmqxmhy-zkVICbS-53" value="Pregled&amp;nbsp; tura" style="text;html=1;strokeColor=none;fillColor=none;align=center;verticalAlign=middle;whiteSpace=wrap;rounded=0;" parent="1" vertex="1">
          <mxGeometry x="375" y="1131" width="60" height="30" as="geometry" />
        </mxCell>
        <mxCell id="tE9FmHmqxmhy-zkVICbS-54" value="" style="endArrow=none;html=1;rounded=0;entryX=0.002;entryY=0.539;entryDx=0;entryDy=0;entryPerimeter=0;" parent="1" target="tE9FmHmqxmhy-zkVICbS-52" edge="1">
          <mxGeometry width="50" height="50" relative="1" as="geometry">
            <mxPoint x="155" y="1686" as="sourcePoint" />
            <mxPoint x="329" y="1198" as="targetPoint" />
          </mxGeometry>
        </mxCell>
        <mxCell id="tE9FmHmqxmhy-zkVICbS-63" value="" style="endArrow=none;html=1;rounded=0;entryX=0;entryY=0.5;entryDx=0;entryDy=0;" parent="1" target="tE9FmHmqxmhy-zkVICbS-201" edge="1">
          <mxGeometry width="50" height="50" relative="1" as="geometry">
            <mxPoint x="155" y="1686" as="sourcePoint" />
            <mxPoint x="345" y="1056" as="targetPoint" />
          </mxGeometry>
        </mxCell>
        <mxCell id="tE9FmHmqxmhy-zkVICbS-68" value="" style="ellipse;whiteSpace=wrap;html=1;" parent="1" vertex="1">
          <mxGeometry x="345" y="1576" width="120" height="60" as="geometry" />
        </mxCell>
        <mxCell id="tE9FmHmqxmhy-zkVICbS-69" value="Prihvatanje preporuke optimalne ture" style="text;html=1;strokeColor=none;fillColor=none;align=center;verticalAlign=middle;whiteSpace=wrap;rounded=0;" parent="1" vertex="1">
          <mxGeometry x="345.5" y="1591" width="116.5" height="30" as="geometry" />
        </mxCell>
        <mxCell id="tE9FmHmqxmhy-zkVICbS-70" value="" style="endArrow=none;html=1;rounded=0;entryX=0;entryY=0.5;entryDx=0;entryDy=0;" parent="1" edge="1">
          <mxGeometry width="50" height="50" relative="1" as="geometry">
            <mxPoint x="155" y="1686" as="sourcePoint" />
            <mxPoint x="345" y="1611" as="targetPoint" />
            <Array as="points" />
          </mxGeometry>
        </mxCell>
        <mxCell id="tE9FmHmqxmhy-zkVICbS-71" value="&amp;lt;&amp;lt;include&amp;gt;&amp;gt;" style="text;html=1;strokeColor=none;fillColor=none;align=center;verticalAlign=middle;whiteSpace=wrap;rounded=0;" parent="1" vertex="1">
          <mxGeometry x="405" y="1636" width="60" height="20" as="geometry" />
        </mxCell>
        <mxCell id="tE9FmHmqxmhy-zkVICbS-72" value="" style="endArrow=open;html=1;rounded=0;exitX=0.235;exitY=0.924;exitDx=0;exitDy=0;endFill=0;dashed=1;entryX=0.735;entryY=0.06;entryDx=0;entryDy=0;entryPerimeter=0;exitPerimeter=0;" parent="1" source="tE9FmHmqxmhy-zkVICbS-68" target="tE9FmHmqxmhy-zkVICbS-3" edge="1">
          <mxGeometry width="50" height="50" relative="1" as="geometry">
            <mxPoint x="363" y="1636" as="sourcePoint" />
            <mxPoint x="447.5" y="1636" as="targetPoint" />
          </mxGeometry>
        </mxCell>
        <mxCell id="tE9FmHmqxmhy-zkVICbS-77" value="" style="ellipse;whiteSpace=wrap;html=1;" parent="1" vertex="1">
          <mxGeometry x="271" y="970" width="120" height="60" as="geometry" />
        </mxCell>
        <mxCell id="tE9FmHmqxmhy-zkVICbS-78" value="Pretraga zahteva" style="text;html=1;strokeColor=none;fillColor=none;align=center;verticalAlign=middle;whiteSpace=wrap;rounded=0;" parent="1" vertex="1">
          <mxGeometry x="291" y="980" width="90" height="30" as="geometry" />
        </mxCell>
        <mxCell id="tE9FmHmqxmhy-zkVICbS-81" value="" style="endArrow=none;html=1;rounded=0;entryX=0.006;entryY=0.581;entryDx=0;entryDy=0;entryPerimeter=0;" parent="1" target="tE9FmHmqxmhy-zkVICbS-77" edge="1">
          <mxGeometry width="50" height="50" relative="1" as="geometry">
            <mxPoint x="156" y="1686" as="sourcePoint" />
            <mxPoint x="345" y="986" as="targetPoint" />
          </mxGeometry>
        </mxCell>
        <mxCell id="tE9FmHmqxmhy-zkVICbS-84" value="" style="endArrow=none;html=1;rounded=0;entryX=0.091;entryY=0.184;entryDx=0;entryDy=0;entryPerimeter=0;" parent="1" target="9RwmldyZn9qF8lHCk9Uj-14" edge="1">
          <mxGeometry width="50" height="50" relative="1" as="geometry">
            <mxPoint x="141" y="510" as="sourcePoint" />
            <mxPoint x="381" y="640" as="targetPoint" />
            <Array as="points">
              <mxPoint x="231" y="640" />
            </Array>
          </mxGeometry>
        </mxCell>
        <mxCell id="tE9FmHmqxmhy-zkVICbS-86" value="Registracija novog smestaja" style="ellipse;whiteSpace=wrap;html=1;" parent="1" vertex="1">
          <mxGeometry x="241" y="3090" width="160" height="50" as="geometry" />
        </mxCell>
        <mxCell id="tE9FmHmqxmhy-zkVICbS-87" value="Prijava komentara na forumu" style="ellipse;whiteSpace=wrap;html=1;" parent="1" vertex="1">
          <mxGeometry x="251" y="3210" width="130" height="70" as="geometry" />
        </mxCell>
        <mxCell id="tE9FmHmqxmhy-zkVICbS-89" value="Prihvatanje zahteva za pomeranje rezervacije" style="ellipse;whiteSpace=wrap;html=1;" parent="1" vertex="1">
          <mxGeometry x="231" y="2930" width="170" height="70" as="geometry" />
        </mxCell>
        <mxCell id="tE9FmHmqxmhy-zkVICbS-90" value="Ocenjivanje gostiju" style="ellipse;whiteSpace=wrap;html=1;" parent="1" vertex="1">
          <mxGeometry x="231" y="3440" width="150" height="60" as="geometry" />
        </mxCell>
        <mxCell id="tE9FmHmqxmhy-zkVICbS-91" value="Odbijanje zahteva za pomeranje rezervacije" style="ellipse;whiteSpace=wrap;html=1;" parent="1" vertex="1">
          <mxGeometry x="241" y="3010" width="150" height="60" as="geometry" />
        </mxCell>
        <mxCell id="tE9FmHmqxmhy-zkVICbS-92" value="Pregled recenzija gostiju" style="ellipse;whiteSpace=wrap;html=1;" parent="1" vertex="1">
          <mxGeometry x="241" y="3150" width="160" height="50" as="geometry" />
        </mxCell>
        <mxCell id="tE9FmHmqxmhy-zkVICbS-93" value="Zakazivanje renoviranja" style="ellipse;whiteSpace=wrap;html=1;" parent="1" vertex="1">
          <mxGeometry x="241" y="3290" width="150" height="60" as="geometry" />
        </mxCell>
        <mxCell id="tE9FmHmqxmhy-zkVICbS-94" value="Otkazivanje renoviranja" style="ellipse;whiteSpace=wrap;html=1;" parent="1" vertex="1">
          <mxGeometry x="231" y="3360" width="160" height="70" as="geometry" />
        </mxCell>
        <mxCell id="tE9FmHmqxmhy-zkVICbS-96" value="Pregled statistike o smeštaju" style="ellipse;whiteSpace=wrap;html=1;" parent="1" vertex="1">
          <mxGeometry x="251" y="2810" width="150" height="40" as="geometry" />
        </mxCell>
        <mxCell id="tE9FmHmqxmhy-zkVICbS-97" value="Pregled sistemskih preporuka" style="ellipse;whiteSpace=wrap;html=1;" parent="1" vertex="1">
          <mxGeometry x="241" y="2860" width="160" height="60" as="geometry" />
        </mxCell>
        <mxCell id="tE9FmHmqxmhy-zkVICbS-98" value="Vlasnik" style="shape=umlActor;verticalLabelPosition=bottom;verticalAlign=top;html=1;outlineConnect=0;" parent="1" vertex="1">
          <mxGeometry x="141" y="2950" width="30" height="60" as="geometry" />
        </mxCell>
        <mxCell id="tE9FmHmqxmhy-zkVICbS-100" value="" style="endArrow=none;html=1;rounded=0;entryX=0;entryY=0.5;entryDx=0;entryDy=0;exitX=1;exitY=0.3333333333333333;exitDx=0;exitDy=0;exitPerimeter=0;" parent="1" source="tE9FmHmqxmhy-zkVICbS-98" target="9RwmldyZn9qF8lHCk9Uj-31" edge="1">
          <mxGeometry width="50" height="50" relative="1" as="geometry">
            <mxPoint x="101" y="2680" as="sourcePoint" />
            <mxPoint x="230.99999999999795" y="2985" as="targetPoint" />
          </mxGeometry>
        </mxCell>
        <mxCell id="tE9FmHmqxmhy-zkVICbS-101" value="" style="endArrow=none;html=1;rounded=0;entryX=0;entryY=0.5;entryDx=0;entryDy=0;exitX=1;exitY=0.3333333333333333;exitDx=0;exitDy=0;exitPerimeter=0;" parent="1" source="tE9FmHmqxmhy-zkVICbS-98" target="9RwmldyZn9qF8lHCk9Uj-36" edge="1">
          <mxGeometry width="50" height="50" relative="1" as="geometry">
            <mxPoint x="181" y="2980.0000000000005" as="sourcePoint" />
            <mxPoint x="280.9236674556131" y="2795.4810928581273" as="targetPoint" />
            <Array as="points">
              <mxPoint x="191" y="2730" />
            </Array>
          </mxGeometry>
        </mxCell>
        <mxCell id="tE9FmHmqxmhy-zkVICbS-102" value="" style="endArrow=none;html=1;rounded=0;entryX=0;entryY=0.5;entryDx=0;entryDy=0;exitX=1;exitY=0.3333333333333333;exitDx=0;exitDy=0;exitPerimeter=0;" parent="1" source="tE9FmHmqxmhy-zkVICbS-98" target="tE9FmHmqxmhy-zkVICbS-96" edge="1">
          <mxGeometry width="50" height="50" relative="1" as="geometry">
            <mxPoint x="181" y="2980" as="sourcePoint" />
            <mxPoint x="261" y="2785" as="targetPoint" />
          </mxGeometry>
        </mxCell>
        <mxCell id="tE9FmHmqxmhy-zkVICbS-103" value="" style="endArrow=none;html=1;rounded=0;entryX=0;entryY=0.5;entryDx=0;entryDy=0;exitX=1;exitY=0.3333333333333333;exitDx=0;exitDy=0;exitPerimeter=0;" parent="1" source="tE9FmHmqxmhy-zkVICbS-98" target="tE9FmHmqxmhy-zkVICbS-97" edge="1">
          <mxGeometry width="50" height="50" relative="1" as="geometry">
            <mxPoint x="191" y="2990" as="sourcePoint" />
            <mxPoint x="271" y="2795" as="targetPoint" />
          </mxGeometry>
        </mxCell>
        <mxCell id="tE9FmHmqxmhy-zkVICbS-104" value="" style="endArrow=none;html=1;rounded=0;exitX=1;exitY=0.3333333333333333;exitDx=0;exitDy=0;exitPerimeter=0;entryX=0;entryY=0.5;entryDx=0;entryDy=0;" parent="1" source="tE9FmHmqxmhy-zkVICbS-98" target="9RwmldyZn9qF8lHCk9Uj-12" edge="1">
          <mxGeometry width="50" height="50" relative="1" as="geometry">
            <mxPoint x="181" y="2980" as="sourcePoint" />
            <mxPoint x="161" y="1480" as="targetPoint" />
            <Array as="points">
              <mxPoint x="71" y="2350" />
              <mxPoint x="61" y="1690" />
            </Array>
          </mxGeometry>
        </mxCell>
        <mxCell id="tE9FmHmqxmhy-zkVICbS-105" value="" style="endArrow=none;html=1;rounded=0;entryX=0;entryY=0.5;entryDx=0;entryDy=0;exitX=1;exitY=0.3333333333333333;exitDx=0;exitDy=0;exitPerimeter=0;" parent="1" source="tE9FmHmqxmhy-zkVICbS-98" target="tE9FmHmqxmhy-zkVICbS-89" edge="1">
          <mxGeometry width="50" height="50" relative="1" as="geometry">
            <mxPoint x="181" y="2980" as="sourcePoint" />
            <mxPoint x="261" y="2785" as="targetPoint" />
          </mxGeometry>
        </mxCell>
        <mxCell id="tE9FmHmqxmhy-zkVICbS-106" value="" style="endArrow=none;html=1;rounded=0;entryX=0;entryY=0.5;entryDx=0;entryDy=0;exitX=1;exitY=0.3333333333333333;exitDx=0;exitDy=0;exitPerimeter=0;" parent="1" source="tE9FmHmqxmhy-zkVICbS-98" target="tE9FmHmqxmhy-zkVICbS-91" edge="1">
          <mxGeometry width="50" height="50" relative="1" as="geometry">
            <mxPoint x="181" y="2980" as="sourcePoint" />
            <mxPoint x="221" y="2960" as="targetPoint" />
          </mxGeometry>
        </mxCell>
        <mxCell id="tE9FmHmqxmhy-zkVICbS-107" value="" style="endArrow=none;html=1;rounded=0;entryX=0;entryY=0.5;entryDx=0;entryDy=0;exitX=1;exitY=0.3333333333333333;exitDx=0;exitDy=0;exitPerimeter=0;" parent="1" source="tE9FmHmqxmhy-zkVICbS-98" target="tE9FmHmqxmhy-zkVICbS-86" edge="1">
          <mxGeometry width="50" height="50" relative="1" as="geometry">
            <mxPoint x="171" y="3040" as="sourcePoint" />
            <mxPoint x="241.00000000000023" y="3110" as="targetPoint" />
          </mxGeometry>
        </mxCell>
        <mxCell id="tE9FmHmqxmhy-zkVICbS-108" value="" style="endArrow=none;html=1;rounded=0;entryX=0;entryY=0.5;entryDx=0;entryDy=0;exitX=1;exitY=0.3333333333333333;exitDx=0;exitDy=0;exitPerimeter=0;" parent="1" source="tE9FmHmqxmhy-zkVICbS-98" target="tE9FmHmqxmhy-zkVICbS-92" edge="1">
          <mxGeometry width="50" height="50" relative="1" as="geometry">
            <mxPoint x="181" y="3030" as="sourcePoint" />
            <mxPoint x="251.0000000000009" y="3175" as="targetPoint" />
          </mxGeometry>
        </mxCell>
        <mxCell id="tE9FmHmqxmhy-zkVICbS-109" value="" style="endArrow=none;html=1;rounded=0;entryX=0;entryY=0.5;entryDx=0;entryDy=0;exitX=1;exitY=0.3333333333333333;exitDx=0;exitDy=0;exitPerimeter=0;" parent="1" source="tE9FmHmqxmhy-zkVICbS-98" target="tE9FmHmqxmhy-zkVICbS-87" edge="1">
          <mxGeometry width="50" height="50" relative="1" as="geometry">
            <mxPoint x="181" y="3020" as="sourcePoint" />
            <mxPoint x="251.0000000000009" y="3165" as="targetPoint" />
          </mxGeometry>
        </mxCell>
        <mxCell id="tE9FmHmqxmhy-zkVICbS-110" value="" style="endArrow=none;html=1;rounded=0;entryX=0;entryY=0.5;entryDx=0;entryDy=0;exitX=1;exitY=0.3333333333333333;exitDx=0;exitDy=0;exitPerimeter=0;" parent="1" source="tE9FmHmqxmhy-zkVICbS-98" target="tE9FmHmqxmhy-zkVICbS-93" edge="1">
          <mxGeometry width="50" height="50" relative="1" as="geometry">
            <mxPoint x="151" y="3040" as="sourcePoint" />
            <mxPoint x="221.0000000000009" y="3185" as="targetPoint" />
          </mxGeometry>
        </mxCell>
        <mxCell id="tE9FmHmqxmhy-zkVICbS-111" value="" style="endArrow=none;html=1;rounded=0;entryX=0;entryY=0.5;entryDx=0;entryDy=0;exitX=1;exitY=0.3333333333333333;exitDx=0;exitDy=0;exitPerimeter=0;" parent="1" source="tE9FmHmqxmhy-zkVICbS-98" target="tE9FmHmqxmhy-zkVICbS-94" edge="1">
          <mxGeometry width="50" height="50" relative="1" as="geometry">
            <mxPoint x="181" y="3050" as="sourcePoint" />
            <mxPoint x="201.0000000000009" y="3215" as="targetPoint" />
          </mxGeometry>
        </mxCell>
        <mxCell id="tE9FmHmqxmhy-zkVICbS-112" value="" style="endArrow=none;html=1;rounded=0;entryX=0;entryY=0.5;entryDx=0;entryDy=0;exitX=1;exitY=0.3333333333333333;exitDx=0;exitDy=0;exitPerimeter=0;" parent="1" source="tE9FmHmqxmhy-zkVICbS-98" target="tE9FmHmqxmhy-zkVICbS-90" edge="1">
          <mxGeometry width="50" height="50" relative="1" as="geometry">
            <mxPoint x="131" y="3100" as="sourcePoint" />
            <mxPoint x="201.0000000000009" y="3245" as="targetPoint" />
          </mxGeometry>
        </mxCell>
        <mxCell id="tE9FmHmqxmhy-zkVICbS-116" style="edgeStyle=orthogonalEdgeStyle;rounded=0;orthogonalLoop=1;jettySize=auto;html=1;fillColor=#ffe6cc;strokeColor=#d79b00;strokeWidth=2;" parent="1" edge="1">
          <mxGeometry relative="1" as="geometry">
            <mxPoint x="631" y="53" as="targetPoint" />
            <mxPoint x="111" y="2470" as="sourcePoint" />
            <Array as="points">
              <mxPoint x="34" y="2470" />
              <mxPoint x="34" y="53" />
            </Array>
          </mxGeometry>
        </mxCell>
        <mxCell id="tE9FmHmqxmhy-zkVICbS-117" style="edgeStyle=orthogonalEdgeStyle;rounded=0;orthogonalLoop=1;jettySize=auto;html=1;fillColor=#ffe6cc;strokeColor=#d79b00;strokeWidth=2;" parent="1" edge="1">
          <mxGeometry relative="1" as="geometry">
            <mxPoint x="629" y="45" as="targetPoint" />
            <mxPoint x="131" y="2970" as="sourcePoint" />
            <Array as="points">
              <mxPoint x="31" y="2970" />
              <mxPoint x="21" y="2970" />
              <mxPoint x="21" y="45" />
            </Array>
          </mxGeometry>
        </mxCell>
        <mxCell id="tE9FmHmqxmhy-zkVICbS-118" value="Čuvanje Karte" style="ellipse;whiteSpace=wrap;html=1;" parent="1" vertex="1">
          <mxGeometry x="1140" y="360" width="130" height="50" as="geometry" />
        </mxCell>
        <mxCell id="tE9FmHmqxmhy-zkVICbS-119" value="Učitavanje Karte" style="ellipse;whiteSpace=wrap;html=1;" parent="1" vertex="1">
          <mxGeometry x="1110" y="420" width="100" height="50" as="geometry" />
        </mxCell>
        <mxCell id="tE9FmHmqxmhy-zkVICbS-121" value="Učitavanje Tura" style="ellipse;whiteSpace=wrap;html=1;" parent="1" vertex="1">
          <mxGeometry x="940" y="260" width="100" height="50" as="geometry" />
        </mxCell>
        <mxCell id="tE9FmHmqxmhy-zkVICbS-122" value="Čuvanje Ture" style="ellipse;whiteSpace=wrap;html=1;" parent="1" vertex="1">
          <mxGeometry x="1061" y="1650" width="100" height="50" as="geometry" />
        </mxCell>
        <mxCell id="tE9FmHmqxmhy-zkVICbS-123" value="Promena statusa termina Ture" style="ellipse;whiteSpace=wrap;html=1;" parent="1" vertex="1">
          <mxGeometry x="1091" y="1370" width="90" height="50" as="geometry" />
        </mxCell>
        <mxCell id="tE9FmHmqxmhy-zkVICbS-124" value="Promena Karte" style="ellipse;whiteSpace=wrap;html=1;" parent="1" vertex="1">
          <mxGeometry x="1080" y="480" width="100" height="50" as="geometry" />
        </mxCell>
        <mxCell id="tE9FmHmqxmhy-zkVICbS-125" value="Potvrda prisustva" style="ellipse;whiteSpace=wrap;html=1;" parent="1" vertex="1">
          <mxGeometry x="401" y="410" width="100" height="50" as="geometry" />
        </mxCell>
        <mxCell id="tE9FmHmqxmhy-zkVICbS-126" value="Učitavanje Vaučera" style="ellipse;whiteSpace=wrap;html=1;" parent="1" vertex="1">
          <mxGeometry x="1101" y="620" width="90" height="60" as="geometry" />
        </mxCell>
        <mxCell id="tE9FmHmqxmhy-zkVICbS-127" value="Čuvanje Notifikacije" style="ellipse;whiteSpace=wrap;html=1;" parent="1" vertex="1">
          <mxGeometry x="1091" y="1960" width="90" height="70" as="geometry" />
        </mxCell>
        <mxCell id="tE9FmHmqxmhy-zkVICbS-128" value="Učitavanje Notifikacije" style="ellipse;whiteSpace=wrap;html=1;" parent="1" vertex="1">
          <mxGeometry x="751" y="2000" width="110" height="70" as="geometry" />
        </mxCell>
        <mxCell id="tE9FmHmqxmhy-zkVICbS-129" value="Čuvanje Vaučera" style="ellipse;whiteSpace=wrap;html=1;" parent="1" vertex="1">
          <mxGeometry x="1091" y="1890" width="90" height="70" as="geometry" />
        </mxCell>
        <mxCell id="tE9FmHmqxmhy-zkVICbS-130" value="Učitavanje Zahteva za ture" style="ellipse;whiteSpace=wrap;html=1;" parent="1" vertex="1">
          <mxGeometry x="1080" y="550" width="100" height="50" as="geometry" />
        </mxCell>
        <mxCell id="tE9FmHmqxmhy-zkVICbS-131" value="Čuvanje Zahteva za ture" style="ellipse;whiteSpace=wrap;html=1;" parent="1" vertex="1">
          <mxGeometry x="1111" y="720" width="90" height="60" as="geometry" />
        </mxCell>
        <mxCell id="tE9FmHmqxmhy-zkVICbS-132" value="Promena statusa Zahteva za ture" style="ellipse;whiteSpace=wrap;html=1;" parent="1" vertex="1">
          <mxGeometry x="881" y="1710" width="100" height="70" as="geometry" />
        </mxCell>
        <mxCell id="tE9FmHmqxmhy-zkVICbS-133" value="Učitavanje Zahteva za kompleksne ture" style="ellipse;whiteSpace=wrap;html=1;" parent="1" vertex="1">
          <mxGeometry x="1101" y="880" width="100" height="80" as="geometry" />
        </mxCell>
        <mxCell id="tE9FmHmqxmhy-zkVICbS-134" value="Čuvanje Zahteva za kompleksne ture" style="ellipse;whiteSpace=wrap;html=1;" parent="1" vertex="1">
          <mxGeometry x="991" y="920" width="90" height="70" as="geometry" />
        </mxCell>
        <mxCell id="tE9FmHmqxmhy-zkVICbS-135" value="Promena statusa Zahteva za kompleksne ture" style="ellipse;whiteSpace=wrap;html=1;" parent="1" vertex="1">
          <mxGeometry x="1071" y="1810" width="118" height="70" as="geometry" />
        </mxCell>
        <mxCell id="tE9FmHmqxmhy-zkVICbS-136" value="Čuvanje Lokacije" style="ellipse;whiteSpace=wrap;html=1;" parent="1" vertex="1">
          <mxGeometry x="1311" y="2160" width="90" height="70" as="geometry" />
        </mxCell>
        <mxCell id="tE9FmHmqxmhy-zkVICbS-140" value="Učitavanje Smeštaja" style="ellipse;whiteSpace=wrap;html=1;" parent="1" vertex="1">
          <mxGeometry x="1020" y="2100" width="90" height="70" as="geometry" />
        </mxCell>
        <mxCell id="tE9FmHmqxmhy-zkVICbS-142" value="Čuvanje&amp;nbsp; Smeštaja" style="ellipse;whiteSpace=wrap;html=1;" parent="1" vertex="1">
          <mxGeometry x="1111" y="3120" width="90" height="70" as="geometry" />
        </mxCell>
        <mxCell id="tE9FmHmqxmhy-zkVICbS-143" value="Učitavanje Rezervacija" style="ellipse;whiteSpace=wrap;html=1;" parent="1" vertex="1">
          <mxGeometry x="1101" y="2310" width="90" height="70" as="geometry" />
        </mxCell>
        <mxCell id="tE9FmHmqxmhy-zkVICbS-144" value="Čuvanje&amp;nbsp; Rezervacija" style="ellipse;whiteSpace=wrap;html=1;" parent="1" vertex="1">
          <mxGeometry x="1100" y="2240" width="90" height="70" as="geometry" />
        </mxCell>
        <mxCell id="tE9FmHmqxmhy-zkVICbS-145" value="Promena Rezervacije" style="ellipse;whiteSpace=wrap;html=1;" parent="1" vertex="1">
          <mxGeometry x="1101" y="2380" width="90" height="70" as="geometry" />
        </mxCell>
        <mxCell id="tE9FmHmqxmhy-zkVICbS-146" value="Učitavanje&amp;nbsp; Zahteva za pomeranje rezervacije" style="ellipse;whiteSpace=wrap;html=1;" parent="1" vertex="1">
          <mxGeometry x="1160" y="3540" width="100" height="70" as="geometry" />
        </mxCell>
        <mxCell id="tE9FmHmqxmhy-zkVICbS-147" value="Čuvanje Zahteva&amp;nbsp; za&amp;nbsp; pomeranje&amp;nbsp;rezervacije" style="ellipse;whiteSpace=wrap;html=1;" parent="1" vertex="1">
          <mxGeometry x="1053" y="2452" width="140" height="70" as="geometry" />
        </mxCell>
        <mxCell id="tE9FmHmqxmhy-zkVICbS-148" value="Promena statusa Zahteva za pomeranje rezervacije" style="ellipse;whiteSpace=wrap;html=1;" parent="1" vertex="1">
          <mxGeometry x="1051" y="3040" width="130" height="70" as="geometry" />
        </mxCell>
        <mxCell id="tE9FmHmqxmhy-zkVICbS-149" value="Učitavanje &lt;br&gt;Foruma" style="ellipse;whiteSpace=wrap;html=1;" parent="1" vertex="1">
          <mxGeometry x="881" y="2870" width="90" height="70" as="geometry" />
        </mxCell>
        <mxCell id="tE9FmHmqxmhy-zkVICbS-150" value="Čuvanje&amp;nbsp; Foruma" style="ellipse;whiteSpace=wrap;html=1;" parent="1" vertex="1">
          <mxGeometry x="1101" y="2760" width="90" height="70" as="geometry" />
        </mxCell>
        <mxCell id="tE9FmHmqxmhy-zkVICbS-152" value="Učitavanje &lt;br&gt;Renovacija" style="ellipse;whiteSpace=wrap;html=1;" parent="1" vertex="1">
          <mxGeometry x="1170" y="3620" width="90" height="70" as="geometry" />
        </mxCell>
        <mxCell id="tE9FmHmqxmhy-zkVICbS-153" value="Čuvanje&amp;nbsp; Renovacija" style="ellipse;whiteSpace=wrap;html=1;" parent="1" vertex="1">
          <mxGeometry x="1120" y="3360" width="90" height="50" as="geometry" />
        </mxCell>
        <mxCell id="tE9FmHmqxmhy-zkVICbS-155" value="Učitavanje Ocena za karte" style="ellipse;whiteSpace=wrap;html=1;" parent="1" vertex="1">
          <mxGeometry x="1061" y="1030" width="110" height="60" as="geometry" />
        </mxCell>
        <mxCell id="tE9FmHmqxmhy-zkVICbS-156" value="Čuvanje Ocena za karte" style="ellipse;whiteSpace=wrap;html=1;" parent="1" vertex="1">
          <mxGeometry x="901" y="510" width="90" height="60" as="geometry" />
        </mxCell>
        <mxCell id="tE9FmHmqxmhy-zkVICbS-157" value="Brisanje Renovacija" style="ellipse;whiteSpace=wrap;html=1;" parent="1" vertex="1">
          <mxGeometry x="1110" y="3420" width="90" height="50" as="geometry" />
        </mxCell>
        <mxCell id="tE9FmHmqxmhy-zkVICbS-158" value="Učitavanje &lt;br&gt;Recenzija od gostiju" style="ellipse;whiteSpace=wrap;html=1;" parent="1" vertex="1">
          <mxGeometry x="1121" y="3200" width="90" height="70" as="geometry" />
        </mxCell>
        <mxCell id="tE9FmHmqxmhy-zkVICbS-161" value="Čuvanje&amp;nbsp; Recenzija od vlasnika" style="ellipse;whiteSpace=wrap;html=1;" parent="1" vertex="1">
          <mxGeometry x="1140" y="3470" width="90" height="70" as="geometry" />
        </mxCell>
        <mxCell id="tE9FmHmqxmhy-zkVICbS-162" value="Učitavanje Komentara na&amp;nbsp;&lt;br&gt;forumu" style="ellipse;whiteSpace=wrap;html=1;" parent="1" vertex="1">
          <mxGeometry x="1041" y="2910" width="160" height="40" as="geometry" />
        </mxCell>
        <mxCell id="tE9FmHmqxmhy-zkVICbS-163" value="Čuvanje&amp;nbsp; Komentara na&amp;nbsp;&lt;br style=&quot;border-color: var(--border-color);&quot;&gt;forumu" style="ellipse;whiteSpace=wrap;html=1;" parent="1" vertex="1">
          <mxGeometry x="1071" y="2830" width="90" height="70" as="geometry" />
        </mxCell>
        <mxCell id="tE9FmHmqxmhy-zkVICbS-164" value="Promena statusa Komentara na&amp;nbsp;&lt;br style=&quot;border-color: var(--border-color);&quot;&gt;forumu" style="ellipse;whiteSpace=wrap;html=1;" parent="1" vertex="1">
          <mxGeometry x="1120" y="3280" width="90" height="70" as="geometry" />
        </mxCell>
        <mxCell id="tE9FmHmqxmhy-zkVICbS-166" value="&amp;lt;&amp;lt;include&amp;gt;&amp;gt;" style="html=1;verticalAlign=bottom;labelBackgroundColor=none;endArrow=open;endFill=0;dashed=1;rounded=0;strokeWidth=2;exitX=1;exitY=0.5;exitDx=0;exitDy=0;entryX=0;entryY=0.5;entryDx=0;entryDy=0;" parent="1" source="9qw-OU29LHggYgpgFnPX-2" target="tE9FmHmqxmhy-zkVICbS-121" edge="1">
          <mxGeometry width="160" relative="1" as="geometry">
            <mxPoint x="651" y="560" as="sourcePoint" />
            <mxPoint x="811" y="560" as="targetPoint" />
            <Array as="points">
              <mxPoint x="501" y="250" />
              <mxPoint x="711" y="280" />
            </Array>
          </mxGeometry>
        </mxCell>
        <mxCell id="tE9FmHmqxmhy-zkVICbS-167" value="Kreiranje Profila" style="ellipse;whiteSpace=wrap;html=1;" parent="1" vertex="1">
          <mxGeometry x="881" y="170" width="70" height="50" as="geometry" />
        </mxCell>
        <mxCell id="tE9FmHmqxmhy-zkVICbS-168" value="Neprijavljen Korisnik" style="shape=umlActor;verticalLabelPosition=bottom;verticalAlign=top;html=1;outlineConnect=0;" parent="1" vertex="1">
          <mxGeometry x="841" y="70" width="30" height="60" as="geometry" />
        </mxCell>
        <mxCell id="tE9FmHmqxmhy-zkVICbS-169" value="" style="endArrow=none;html=1;rounded=0;entryX=1;entryY=0.3333333333333333;entryDx=0;entryDy=0;exitX=0.5;exitY=0;exitDx=0;exitDy=0;entryPerimeter=0;" parent="1" source="tE9FmHmqxmhy-zkVICbS-167" target="tE9FmHmqxmhy-zkVICbS-168" edge="1">
          <mxGeometry width="50" height="50" relative="1" as="geometry">
            <mxPoint x="911" y="220" as="sourcePoint" />
            <mxPoint x="831" y="90" as="targetPoint" />
          </mxGeometry>
        </mxCell>
        <mxCell id="tE9FmHmqxmhy-zkVICbS-172" value="Odjava" style="ellipse;whiteSpace=wrap;html=1;" parent="1" vertex="1">
          <mxGeometry x="561" y="170" width="50" height="40" as="geometry" />
        </mxCell>
        <mxCell id="tE9FmHmqxmhy-zkVICbS-173" value="" style="endArrow=none;html=1;rounded=0;entryX=1;entryY=0.3333333333333333;entryDx=0;entryDy=0;exitX=0.5;exitY=0;exitDx=0;exitDy=0;entryPerimeter=0;" parent="1" source="tE9FmHmqxmhy-zkVICbS-172" target="9RwmldyZn9qF8lHCk9Uj-53" edge="1">
          <mxGeometry width="50" height="50" relative="1" as="geometry">
            <mxPoint x="666" y="180" as="sourcePoint" />
            <mxPoint x="691" y="80" as="targetPoint" />
          </mxGeometry>
        </mxCell>
        <mxCell id="tE9FmHmqxmhy-zkVICbS-174" value="&amp;lt;&amp;lt;include&amp;gt;&amp;gt;" style="html=1;verticalAlign=bottom;labelBackgroundColor=none;endArrow=open;endFill=0;dashed=1;rounded=0;strokeWidth=2;exitX=1;exitY=0.5;exitDx=0;exitDy=0;entryX=0;entryY=0.5;entryDx=0;entryDy=0;" parent="1" source="9RwmldyZn9qF8lHCk9Uj-1" target="tE9FmHmqxmhy-zkVICbS-119" edge="1">
          <mxGeometry width="160" relative="1" as="geometry">
            <mxPoint x="421" y="330" as="sourcePoint" />
            <mxPoint x="581" y="330" as="targetPoint" />
          </mxGeometry>
        </mxCell>
        <mxCell id="tE9FmHmqxmhy-zkVICbS-175" value="&amp;lt;&amp;lt;include&amp;gt;&amp;gt;" style="html=1;verticalAlign=bottom;labelBackgroundColor=none;endArrow=open;endFill=0;dashed=1;rounded=0;strokeWidth=2;exitX=1;exitY=1;exitDx=0;exitDy=0;entryX=0;entryY=0.5;entryDx=0;entryDy=0;" parent="1" source="9RwmldyZn9qF8lHCk9Uj-6" target="tE9FmHmqxmhy-zkVICbS-118" edge="1">
          <mxGeometry width="160" relative="1" as="geometry">
            <mxPoint x="411" y="350" as="sourcePoint" />
            <mxPoint x="680.9999999999914" y="385" as="targetPoint" />
          </mxGeometry>
        </mxCell>
        <mxCell id="tE9FmHmqxmhy-zkVICbS-176" value="&amp;lt;&amp;lt;include&amp;gt;&amp;gt;" style="html=1;verticalAlign=bottom;labelBackgroundColor=none;endArrow=open;endFill=0;dashed=1;rounded=0;strokeWidth=2;exitX=1;exitY=0.5;exitDx=0;exitDy=0;entryX=0;entryY=0.5;entryDx=0;entryDy=0;" parent="1" source="9RwmldyZn9qF8lHCk9Uj-8" target="tE9FmHmqxmhy-zkVICbS-124" edge="1">
          <mxGeometry width="160" relative="1" as="geometry">
            <mxPoint x="411" y="350" as="sourcePoint" />
            <mxPoint x="1051" y="454.9999999999998" as="targetPoint" />
          </mxGeometry>
        </mxCell>
        <mxCell id="tE9FmHmqxmhy-zkVICbS-177" value="&amp;lt;&amp;lt;include&amp;gt;&amp;gt;" style="html=1;verticalAlign=bottom;labelBackgroundColor=none;endArrow=open;endFill=0;dashed=1;rounded=0;strokeWidth=2;exitX=1;exitY=0.5;exitDx=0;exitDy=0;entryX=0;entryY=1;entryDx=0;entryDy=0;" parent="1" source="tE9FmHmqxmhy-zkVICbS-125" target="tE9FmHmqxmhy-zkVICbS-124" edge="1">
          <mxGeometry width="160" relative="1" as="geometry">
            <mxPoint x="510.99999999999" y="385" as="sourcePoint" />
            <mxPoint x="1050.9999999999995" y="515" as="targetPoint" />
          </mxGeometry>
        </mxCell>
        <mxCell id="tE9FmHmqxmhy-zkVICbS-178" value="&amp;lt;&amp;lt;include&amp;gt;&amp;gt;" style="html=1;verticalAlign=bottom;labelBackgroundColor=none;endArrow=open;endFill=0;dashed=1;rounded=0;strokeWidth=2;exitX=1;exitY=0.5;exitDx=0;exitDy=0;entryX=0;entryY=0.5;entryDx=0;entryDy=0;" parent="1" source="9RwmldyZn9qF8lHCk9Uj-39" target="tE9FmHmqxmhy-zkVICbS-156" edge="1">
          <mxGeometry width="160" relative="1" as="geometry">
            <mxPoint x="511" y="445" as="sourcePoint" />
            <mxPoint x="1065.3331784242691" y="532.5205439319379" as="targetPoint" />
          </mxGeometry>
        </mxCell>
        <mxCell id="tE9FmHmqxmhy-zkVICbS-179" value="&amp;lt;&amp;lt;include&amp;gt;&amp;gt;" style="html=1;verticalAlign=bottom;labelBackgroundColor=none;endArrow=open;endFill=0;dashed=1;rounded=0;strokeWidth=2;exitX=1;exitY=0.5;exitDx=0;exitDy=0;entryX=0;entryY=0.5;entryDx=0;entryDy=0;" parent="1" source="9RwmldyZn9qF8lHCk9Uj-2" target="tE9FmHmqxmhy-zkVICbS-126" edge="1">
          <mxGeometry width="160" relative="1" as="geometry">
            <mxPoint x="382.41622623037847" y="312.501200054077" as="sourcePoint" />
            <mxPoint x="1031.0000000000068" y="385" as="targetPoint" />
            <Array as="points">
              <mxPoint x="601" y="640" />
            </Array>
          </mxGeometry>
        </mxCell>
        <mxCell id="tE9FmHmqxmhy-zkVICbS-180" value="&amp;lt;&amp;lt;include&amp;gt;&amp;gt;" style="html=1;verticalAlign=bottom;labelBackgroundColor=none;endArrow=open;endFill=0;dashed=1;rounded=0;strokeWidth=2;exitX=1;exitY=0.5;exitDx=0;exitDy=0;entryX=0;entryY=1;entryDx=0;entryDy=0;" parent="1" source="9RwmldyZn9qF8lHCk9Uj-10" target="9RwmldyZn9qF8lHCk9Uj-90" edge="1">
          <mxGeometry width="160" relative="1" as="geometry">
            <mxPoint x="382.41622623037847" y="312.501200054077" as="sourcePoint" />
            <mxPoint x="1031.0000000000068" y="385" as="targetPoint" />
            <Array as="points">
              <mxPoint x="801" y="320" />
              <mxPoint x="931" y="340" />
            </Array>
          </mxGeometry>
        </mxCell>
        <mxCell id="tE9FmHmqxmhy-zkVICbS-182" value="&amp;lt;&amp;lt;include&amp;gt;&amp;gt;" style="html=1;verticalAlign=bottom;labelBackgroundColor=none;endArrow=open;endFill=0;dashed=1;rounded=0;strokeWidth=2;exitX=1;exitY=0.5;exitDx=0;exitDy=0;entryX=0;entryY=0.5;entryDx=0;entryDy=0;" parent="1" source="9RwmldyZn9qF8lHCk9Uj-13" target="tE9FmHmqxmhy-zkVICbS-131" edge="1">
          <mxGeometry width="160" relative="1" as="geometry">
            <mxPoint x="691" y="720.0000000000002" as="sourcePoint" />
            <mxPoint x="851" y="720.0000000000002" as="targetPoint" />
            <Array as="points">
              <mxPoint x="781" y="740" />
            </Array>
          </mxGeometry>
        </mxCell>
        <mxCell id="tE9FmHmqxmhy-zkVICbS-183" value="&amp;lt;&amp;lt;include&amp;gt;&amp;gt;" style="html=1;verticalAlign=bottom;labelBackgroundColor=none;endArrow=open;endFill=0;dashed=1;rounded=0;strokeWidth=2;entryX=0;entryY=0.5;entryDx=0;entryDy=0;exitX=1;exitY=0.5;exitDx=0;exitDy=0;" parent="1" source="9RwmldyZn9qF8lHCk9Uj-3" target="tE9FmHmqxmhy-zkVICbS-130" edge="1">
          <mxGeometry width="160" relative="1" as="geometry">
            <mxPoint x="801" y="610.0000000000002" as="sourcePoint" />
            <mxPoint x="961" y="610.0000000000002" as="targetPoint" />
          </mxGeometry>
        </mxCell>
        <mxCell id="tE9FmHmqxmhy-zkVICbS-184" value="&amp;lt;&amp;lt;include&amp;gt;&amp;gt;" style="html=1;verticalAlign=bottom;labelBackgroundColor=none;endArrow=open;endFill=0;dashed=1;rounded=0;strokeWidth=2;entryX=0;entryY=0.5;entryDx=0;entryDy=0;exitX=1;exitY=0.5;exitDx=0;exitDy=0;" parent="1" source="9RwmldyZn9qF8lHCk9Uj-15" target="tE9FmHmqxmhy-zkVICbS-133" edge="1">
          <mxGeometry width="160" relative="1" as="geometry">
            <mxPoint x="831" y="800.0000000000002" as="sourcePoint" />
            <mxPoint x="991" y="800.0000000000002" as="targetPoint" />
            <Array as="points">
              <mxPoint x="571" y="755" />
            </Array>
          </mxGeometry>
        </mxCell>
        <mxCell id="tE9FmHmqxmhy-zkVICbS-185" value="&amp;lt;&amp;lt;include&amp;gt;&amp;gt;" style="html=1;verticalAlign=bottom;labelBackgroundColor=none;endArrow=open;endFill=0;dashed=1;rounded=0;strokeWidth=2;exitX=1;exitY=0.5;exitDx=0;exitDy=0;entryX=0;entryY=0.5;entryDx=0;entryDy=0;" parent="1" source="9RwmldyZn9qF8lHCk9Uj-16" target="tE9FmHmqxmhy-zkVICbS-134" edge="1">
          <mxGeometry width="160" relative="1" as="geometry">
            <mxPoint x="571" y="810" as="sourcePoint" />
            <mxPoint x="731" y="810" as="targetPoint" />
          </mxGeometry>
        </mxCell>
        <mxCell id="tE9FmHmqxmhy-zkVICbS-186" value="Računanje statistike o Zahtevima za ture" style="ellipse;whiteSpace=wrap;html=1;" parent="1" vertex="1">
          <mxGeometry x="1101" y="790" width="90" height="70" as="geometry" />
        </mxCell>
        <mxCell id="tE9FmHmqxmhy-zkVICbS-187" value="&amp;lt;&amp;lt;include&amp;gt;&amp;gt;" style="html=1;verticalAlign=bottom;labelBackgroundColor=none;endArrow=open;endFill=0;dashed=1;rounded=0;strokeWidth=2;exitX=1;exitY=0.5;exitDx=0;exitDy=0;entryX=0;entryY=0.5;entryDx=0;entryDy=0;" parent="1" source="9RwmldyZn9qF8lHCk9Uj-14" target="tE9FmHmqxmhy-zkVICbS-186" edge="1">
          <mxGeometry width="160" relative="1" as="geometry">
            <mxPoint x="371" y="690" as="sourcePoint" />
            <mxPoint x="531" y="690" as="targetPoint" />
          </mxGeometry>
        </mxCell>
        <mxCell id="tE9FmHmqxmhy-zkVICbS-192" value="Kreiranje novih termina za ture" style="ellipse;whiteSpace=wrap;html=1;" parent="1" vertex="1">
          <mxGeometry x="861" y="1580" width="100" height="70" as="geometry" />
        </mxCell>
        <mxCell id="tE9FmHmqxmhy-zkVICbS-193" value="Čuvanje termina za ture" style="ellipse;whiteSpace=wrap;html=1;" parent="1" vertex="1">
          <mxGeometry x="1071" y="1590" width="100" height="50" as="geometry" />
        </mxCell>
        <mxCell id="tE9FmHmqxmhy-zkVICbS-194" value="&amp;lt;&amp;lt;include&amp;gt;&amp;gt;" style="html=1;verticalAlign=bottom;labelBackgroundColor=none;endArrow=open;endFill=0;dashed=1;rounded=0;strokeWidth=2;exitX=1;exitY=0.5;exitDx=0;exitDy=0;entryX=0.5;entryY=1;entryDx=0;entryDy=0;" parent="1" source="tE9FmHmqxmhy-zkVICbS-52" target="tE9FmHmqxmhy-zkVICbS-121" edge="1">
          <mxGeometry width="160" relative="1" as="geometry">
            <mxPoint x="491" y="1150" as="sourcePoint" />
            <mxPoint x="651" y="1150" as="targetPoint" />
          </mxGeometry>
        </mxCell>
        <mxCell id="tE9FmHmqxmhy-zkVICbS-195" value="&amp;lt;&amp;lt;include&amp;gt;&amp;gt;" style="html=1;verticalAlign=bottom;labelBackgroundColor=none;endArrow=open;endFill=0;dashed=1;rounded=0;strokeWidth=2;exitX=1;exitY=0.5;exitDx=0;exitDy=0;entryX=0;entryY=0.5;entryDx=0;entryDy=0;" parent="1" source="tE9FmHmqxmhy-zkVICbS-3" target="tE9FmHmqxmhy-zkVICbS-122" edge="1">
          <mxGeometry width="160" relative="1" as="geometry">
            <mxPoint x="521" y="1700" as="sourcePoint" />
            <mxPoint x="681" y="1700" as="targetPoint" />
          </mxGeometry>
        </mxCell>
        <mxCell id="tE9FmHmqxmhy-zkVICbS-196" value="&amp;lt;&amp;lt;include&amp;gt;&amp;gt;" style="html=1;verticalAlign=bottom;labelBackgroundColor=none;endArrow=open;endFill=0;dashed=1;rounded=0;strokeWidth=2;exitX=1;exitY=0.5;exitDx=0;exitDy=0;entryX=0;entryY=0.5;entryDx=0;entryDy=0;" parent="1" source="tE9FmHmqxmhy-zkVICbS-3" target="tE9FmHmqxmhy-zkVICbS-192" edge="1">
          <mxGeometry width="160" relative="1" as="geometry">
            <mxPoint x="481" y="1661" as="sourcePoint" />
            <mxPoint x="1089.5" y="1650" as="targetPoint" />
          </mxGeometry>
        </mxCell>
        <mxCell id="tE9FmHmqxmhy-zkVICbS-197" value="&amp;lt;&amp;lt;include&amp;gt;&amp;gt;" style="html=1;verticalAlign=bottom;labelBackgroundColor=none;endArrow=open;endFill=0;dashed=1;rounded=0;strokeWidth=2;exitX=1;exitY=0.5;exitDx=0;exitDy=0;entryX=0;entryY=0.5;entryDx=0;entryDy=0;" parent="1" source="tE9FmHmqxmhy-zkVICbS-192" target="tE9FmHmqxmhy-zkVICbS-193" edge="1">
          <mxGeometry width="160" relative="1" as="geometry">
            <mxPoint x="462.5" y="1696" as="sourcePoint" />
            <mxPoint x="871" y="1625" as="targetPoint" />
          </mxGeometry>
        </mxCell>
        <mxCell id="tE9FmHmqxmhy-zkVICbS-198" value="&amp;lt;&amp;lt;include&amp;gt;&amp;gt;" style="html=1;verticalAlign=bottom;labelBackgroundColor=none;endArrow=open;endFill=0;dashed=1;rounded=0;strokeWidth=2;exitX=1;exitY=0.5;exitDx=0;exitDy=0;entryX=0;entryY=1;entryDx=0;entryDy=0;" parent="1" source="tE9FmHmqxmhy-zkVICbS-46" target="tE9FmHmqxmhy-zkVICbS-124" edge="1">
          <mxGeometry width="160" relative="1" as="geometry">
            <mxPoint x="541" y="1500" as="sourcePoint" />
            <mxPoint x="1041" y="530" as="targetPoint" />
          </mxGeometry>
        </mxCell>
        <mxCell id="tE9FmHmqxmhy-zkVICbS-199" value="&amp;lt;&amp;lt;include&amp;gt;&amp;gt;" style="html=1;verticalAlign=bottom;labelBackgroundColor=none;endArrow=open;endFill=0;dashed=1;rounded=0;strokeWidth=2;exitX=1;exitY=0.5;exitDx=0;exitDy=0;entryX=0;entryY=0.5;entryDx=0;entryDy=0;" parent="1" source="tE9FmHmqxmhy-zkVICbS-38" target="tE9FmHmqxmhy-zkVICbS-123" edge="1">
          <mxGeometry width="160" relative="1" as="geometry">
            <mxPoint x="471" y="1320" as="sourcePoint" />
            <mxPoint x="631" y="1320" as="targetPoint" />
          </mxGeometry>
        </mxCell>
        <mxCell id="tE9FmHmqxmhy-zkVICbS-200" value="&amp;lt;&amp;lt;include&amp;gt;&amp;gt;" style="html=1;verticalAlign=bottom;labelBackgroundColor=none;endArrow=open;endFill=0;dashed=1;rounded=0;strokeWidth=2;exitX=1;exitY=0.5;exitDx=0;exitDy=0;entryX=0;entryY=0.5;entryDx=0;entryDy=0;" parent="1" source="tE9FmHmqxmhy-zkVICbS-32" target="tE9FmHmqxmhy-zkVICbS-123" edge="1">
          <mxGeometry width="160" relative="1" as="geometry">
            <mxPoint x="480.5" y="1326.0000000000002" as="sourcePoint" />
            <mxPoint x="931.0000000000032" y="1245" as="targetPoint" />
          </mxGeometry>
        </mxCell>
        <mxCell id="tE9FmHmqxmhy-zkVICbS-201" value="Pregled Ocena za karte" style="ellipse;whiteSpace=wrap;html=1;" parent="1" vertex="1">
          <mxGeometry x="361" y="1030" width="100" height="60" as="geometry" />
        </mxCell>
        <mxCell id="tE9FmHmqxmhy-zkVICbS-202" value="&amp;lt;&amp;lt;include&amp;gt;&amp;gt;" style="html=1;verticalAlign=bottom;labelBackgroundColor=none;endArrow=open;endFill=0;dashed=1;rounded=0;strokeWidth=2;exitX=1;exitY=0.5;exitDx=0;exitDy=0;entryX=0;entryY=0.5;entryDx=0;entryDy=0;" parent="1" source="tE9FmHmqxmhy-zkVICbS-15" target="tE9FmHmqxmhy-zkVICbS-135" edge="1">
          <mxGeometry width="160" relative="1" as="geometry">
            <mxPoint x="691" y="1860" as="sourcePoint" />
            <mxPoint x="801" y="1860" as="targetPoint" />
          </mxGeometry>
        </mxCell>
        <mxCell id="tE9FmHmqxmhy-zkVICbS-203" value="&amp;lt;&amp;lt;include&amp;gt;&amp;gt;" style="html=1;verticalAlign=bottom;labelBackgroundColor=none;endArrow=open;endFill=0;dashed=1;rounded=0;strokeWidth=2;exitX=1;exitY=0.5;exitDx=0;exitDy=0;entryX=0;entryY=0.5;entryDx=0;entryDy=0;" parent="1" source="tE9FmHmqxmhy-zkVICbS-17" target="tE9FmHmqxmhy-zkVICbS-132" edge="1">
          <mxGeometry width="160" relative="1" as="geometry">
            <mxPoint x="451" y="1761" as="sourcePoint" />
            <mxPoint x="1069.4999999999964" y="1760" as="targetPoint" />
          </mxGeometry>
        </mxCell>
        <mxCell id="tE9FmHmqxmhy-zkVICbS-204" value="Čuvanje Zahteva za ture" style="ellipse;whiteSpace=wrap;html=1;" parent="1" vertex="1">
          <mxGeometry x="1071" y="1730" width="100" height="70" as="geometry" />
        </mxCell>
        <mxCell id="tE9FmHmqxmhy-zkVICbS-205" value="&amp;lt;&amp;lt;include&amp;gt;&amp;gt;" style="html=1;verticalAlign=bottom;labelBackgroundColor=none;endArrow=open;endFill=0;dashed=1;rounded=0;strokeWidth=2;exitX=1;exitY=0.5;exitDx=0;exitDy=0;entryX=0;entryY=0.5;entryDx=0;entryDy=0;" parent="1" source="tE9FmHmqxmhy-zkVICbS-132" target="tE9FmHmqxmhy-zkVICbS-204" edge="1">
          <mxGeometry width="160" relative="1" as="geometry">
            <mxPoint x="427.5" y="1776" as="sourcePoint" />
            <mxPoint x="891" y="1755" as="targetPoint" />
          </mxGeometry>
        </mxCell>
        <mxCell id="tE9FmHmqxmhy-zkVICbS-206" value="&amp;lt;&amp;lt;include&amp;gt;&amp;gt;" style="html=1;verticalAlign=bottom;labelBackgroundColor=none;endArrow=open;endFill=0;dashed=1;rounded=0;strokeWidth=2;exitX=1;exitY=0.5;exitDx=0;exitDy=0;entryX=0;entryY=0.5;entryDx=0;entryDy=0;" parent="1" source="tE9FmHmqxmhy-zkVICbS-201" target="tE9FmHmqxmhy-zkVICbS-155" edge="1">
          <mxGeometry width="160" relative="1" as="geometry">
            <mxPoint x="481" y="990" as="sourcePoint" />
            <mxPoint x="641" y="990" as="targetPoint" />
            <Array as="points" />
          </mxGeometry>
        </mxCell>
        <mxCell id="tE9FmHmqxmhy-zkVICbS-207" value="Računanje statistike" style="ellipse;whiteSpace=wrap;html=1;" parent="1" vertex="1">
          <mxGeometry x="1081" y="1100" width="90" height="70" as="geometry" />
        </mxCell>
        <mxCell id="tE9FmHmqxmhy-zkVICbS-208" value="&amp;lt;&amp;lt;include&amp;gt;&amp;gt;" style="html=1;verticalAlign=bottom;labelBackgroundColor=none;endArrow=open;endFill=0;dashed=1;rounded=0;strokeWidth=2;entryX=0;entryY=0.5;entryDx=0;entryDy=0;exitX=1;exitY=0.5;exitDx=0;exitDy=0;" parent="1" source="tE9FmHmqxmhy-zkVICbS-49" target="tE9FmHmqxmhy-zkVICbS-207" edge="1">
          <mxGeometry width="160" relative="1" as="geometry">
            <mxPoint x="501" y="1230" as="sourcePoint" />
            <mxPoint x="621" y="1230" as="targetPoint" />
          </mxGeometry>
        </mxCell>
        <mxCell id="tE9FmHmqxmhy-zkVICbS-209" value="&amp;lt;&amp;lt;include&amp;gt;&amp;gt;" style="html=1;verticalAlign=bottom;labelBackgroundColor=none;endArrow=open;endFill=0;dashed=1;rounded=0;strokeWidth=2;exitX=1;exitY=0.5;exitDx=0;exitDy=0;entryX=0;entryY=0.5;entryDx=0;entryDy=0;" parent="1" source="tE9FmHmqxmhy-zkVICbS-24" target="tE9FmHmqxmhy-zkVICbS-123" edge="1">
          <mxGeometry width="160" relative="1" as="geometry">
            <mxPoint x="661" y="1530" as="sourcePoint" />
            <mxPoint x="821" y="1530" as="targetPoint" />
            <Array as="points">
              <mxPoint x="751" y="1590" />
            </Array>
          </mxGeometry>
        </mxCell>
        <mxCell id="tE9FmHmqxmhy-zkVICbS-210" value="&amp;lt;&amp;lt;include&amp;gt;&amp;gt;" style="html=1;verticalAlign=bottom;labelBackgroundColor=none;endArrow=open;endFill=0;dashed=1;rounded=0;strokeWidth=2;exitX=1;exitY=0.5;exitDx=0;exitDy=0;entryX=0;entryY=0.5;entryDx=0;entryDy=0;" parent="1" source="tE9FmHmqxmhy-zkVICbS-27" target="9RwmldyZn9qF8lHCk9Uj-91" edge="1">
          <mxGeometry width="160" relative="1" as="geometry">
            <mxPoint x="451" y="2001" as="sourcePoint" />
            <mxPoint x="1069.4999999999964" y="2000" as="targetPoint" />
          </mxGeometry>
        </mxCell>
        <mxCell id="tE9FmHmqxmhy-zkVICbS-211" value="&amp;lt;&amp;lt;include&amp;gt;&amp;gt;" style="html=1;verticalAlign=bottom;labelBackgroundColor=none;endArrow=open;endFill=0;dashed=1;rounded=0;strokeWidth=2;exitX=1;exitY=0.5;exitDx=0;exitDy=0;entryX=0;entryY=0.5;entryDx=0;entryDy=0;" parent="1" source="9RwmldyZn9qF8lHCk9Uj-91" target="tE9FmHmqxmhy-zkVICbS-129" edge="1">
          <mxGeometry width="160" relative="1" as="geometry">
            <mxPoint x="450.5" y="2016" as="sourcePoint" />
            <mxPoint x="931" y="1970" as="targetPoint" />
          </mxGeometry>
        </mxCell>
        <mxCell id="tE9FmHmqxmhy-zkVICbS-215" value="Prijavljivanje neispravnih ocena" style="ellipse;whiteSpace=wrap;html=1;" parent="1" vertex="1">
          <mxGeometry x="361" y="1350" width="100" height="70" as="geometry" />
        </mxCell>
        <mxCell id="tE9FmHmqxmhy-zkVICbS-217" value="" style="endArrow=none;html=1;rounded=0;entryX=0;entryY=0.5;entryDx=0;entryDy=0;exitX=1;exitY=0.3333333333333333;exitDx=0;exitDy=0;exitPerimeter=0;" parent="1" source="tE9FmHmqxmhy-zkVICbS-2" target="tE9FmHmqxmhy-zkVICbS-215" edge="1">
          <mxGeometry width="50" height="50" relative="1" as="geometry">
            <mxPoint x="211" y="1600" as="sourcePoint" />
            <mxPoint x="362.3000000000002" y="1335.24" as="targetPoint" />
          </mxGeometry>
        </mxCell>
        <mxCell id="tE9FmHmqxmhy-zkVICbS-218" value="Promena statusa Ocena za karte" style="ellipse;whiteSpace=wrap;html=1;" parent="1" vertex="1">
          <mxGeometry x="1061" y="1220" width="110" height="60" as="geometry" />
        </mxCell>
        <mxCell id="tE9FmHmqxmhy-zkVICbS-219" value="&amp;lt;&amp;lt;include&amp;gt;&amp;gt;" style="html=1;verticalAlign=bottom;labelBackgroundColor=none;endArrow=open;endFill=0;dashed=1;rounded=0;strokeWidth=2;exitX=1;exitY=0.5;exitDx=0;exitDy=0;entryX=0;entryY=0.5;entryDx=0;entryDy=0;" parent="1" source="tE9FmHmqxmhy-zkVICbS-215" target="tE9FmHmqxmhy-zkVICbS-218" edge="1">
          <mxGeometry width="160" relative="1" as="geometry">
            <mxPoint x="480.5" y="1326" as="sourcePoint" />
            <mxPoint x="1101" y="1405" as="targetPoint" />
          </mxGeometry>
        </mxCell>
        <mxCell id="tE9FmHmqxmhy-zkVICbS-220" value="&amp;lt;&amp;lt;include&amp;gt;&amp;gt;" style="html=1;verticalAlign=bottom;labelBackgroundColor=none;endArrow=open;endFill=0;dashed=1;rounded=0;strokeWidth=2;exitX=1;exitY=0.5;exitDx=0;exitDy=0;entryX=0.5;entryY=0;entryDx=0;entryDy=0;" parent="1" source="9RwmldyZn9qF8lHCk9Uj-12" target="tE9FmHmqxmhy-zkVICbS-128" edge="1">
          <mxGeometry width="160" relative="1" as="geometry">
            <mxPoint x="431" y="890" as="sourcePoint" />
            <mxPoint x="591" y="890" as="targetPoint" />
            <Array as="points">
              <mxPoint x="651" y="1000" />
            </Array>
          </mxGeometry>
        </mxCell>
        <mxCell id="tE9FmHmqxmhy-zkVICbS-221" value="Brisanje Notifikacije" style="ellipse;whiteSpace=wrap;html=1;" parent="1" vertex="1">
          <mxGeometry x="651" y="2070" width="90" height="70" as="geometry" />
        </mxCell>
        <mxCell id="tE9FmHmqxmhy-zkVICbS-222" value="&amp;lt;&amp;lt;include&amp;gt;&amp;gt;" style="html=1;verticalAlign=bottom;labelBackgroundColor=none;endArrow=open;endFill=0;dashed=1;rounded=0;strokeWidth=2;exitX=1;exitY=0.5;exitDx=0;exitDy=0;entryX=0.5;entryY=0;entryDx=0;entryDy=0;" parent="1" source="9RwmldyZn9qF8lHCk9Uj-17" target="tE9FmHmqxmhy-zkVICbS-221" edge="1">
          <mxGeometry width="160" relative="1" as="geometry">
            <mxPoint x="441" y="940" as="sourcePoint" />
            <mxPoint x="601" y="940" as="targetPoint" />
            <Array as="points">
              <mxPoint x="581" y="1030" />
            </Array>
          </mxGeometry>
        </mxCell>
        <mxCell id="tE9FmHmqxmhy-zkVICbS-223" value="&amp;lt;&amp;lt;include&amp;gt;&amp;gt;" style="html=1;verticalAlign=bottom;labelBackgroundColor=none;endArrow=open;endFill=0;dashed=1;rounded=0;strokeWidth=2;exitX=1;exitY=0.5;exitDx=0;exitDy=0;entryX=0;entryY=0.5;entryDx=0;entryDy=0;" parent="1" source="9RwmldyZn9qF8lHCk9Uj-21" target="tE9FmHmqxmhy-zkVICbS-140" edge="1">
          <mxGeometry width="160" relative="1" as="geometry">
            <mxPoint x="861" y="2180" as="sourcePoint" />
            <mxPoint x="1021" y="2180" as="targetPoint" />
            <Array as="points">
              <mxPoint x="771" y="2155" />
            </Array>
          </mxGeometry>
        </mxCell>
        <mxCell id="tE9FmHmqxmhy-zkVICbS-224" value="&amp;lt;&amp;lt;include&amp;gt;&amp;gt;" style="html=1;verticalAlign=bottom;labelBackgroundColor=none;endArrow=open;endFill=0;dashed=1;rounded=0;strokeWidth=2;exitX=1;exitY=0.5;exitDx=0;exitDy=0;entryX=0;entryY=0.5;entryDx=0;entryDy=0;" parent="1" source="9RwmldyZn9qF8lHCk9Uj-22" target="tE9FmHmqxmhy-zkVICbS-143" edge="1">
          <mxGeometry width="160" relative="1" as="geometry">
            <mxPoint x="531" y="2360" as="sourcePoint" />
            <mxPoint x="691" y="2360" as="targetPoint" />
            <mxPoint as="offset" />
          </mxGeometry>
        </mxCell>
        <mxCell id="tE9FmHmqxmhy-zkVICbS-225" value="&amp;lt;&amp;lt;include&amp;gt;&amp;gt;" style="html=1;verticalAlign=bottom;labelBackgroundColor=none;endArrow=open;endFill=0;dashed=1;rounded=0;strokeWidth=2;exitX=1;exitY=0.5;exitDx=0;exitDy=0;entryX=0;entryY=0.5;entryDx=0;entryDy=0;" parent="1" source="tE9FmHmqxmhy-zkVICbS-89" target="tE9FmHmqxmhy-zkVICbS-145" edge="1">
          <mxGeometry width="160" relative="1" as="geometry">
            <mxPoint x="421.0000000000059" y="2335" as="sourcePoint" />
            <mxPoint x="1101.000000000005" y="2365" as="targetPoint" />
            <mxPoint as="offset" />
          </mxGeometry>
        </mxCell>
        <mxCell id="tE9FmHmqxmhy-zkVICbS-226" value="Brisanje Rezervacije" style="ellipse;whiteSpace=wrap;html=1;" parent="1" vertex="1">
          <mxGeometry x="1081" y="2530" width="100" height="50" as="geometry" />
        </mxCell>
        <mxCell id="tE9FmHmqxmhy-zkVICbS-227" value="&amp;lt;&amp;lt;include&amp;gt;&amp;gt;" style="html=1;verticalAlign=bottom;labelBackgroundColor=none;endArrow=open;endFill=0;dashed=1;rounded=0;strokeWidth=2;exitX=1;exitY=0.5;exitDx=0;exitDy=0;entryX=0;entryY=0.5;entryDx=0;entryDy=0;" parent="1" source="9RwmldyZn9qF8lHCk9Uj-26" target="tE9FmHmqxmhy-zkVICbS-226" edge="1">
          <mxGeometry width="160" relative="1" as="geometry">
            <mxPoint x="431" y="2400" as="sourcePoint" />
            <mxPoint x="1101.000000000005" y="2445" as="targetPoint" />
            <mxPoint as="offset" />
          </mxGeometry>
        </mxCell>
        <mxCell id="tE9FmHmqxmhy-zkVICbS-228" value="&amp;lt;&amp;lt;include&amp;gt;&amp;gt;" style="html=1;verticalAlign=bottom;labelBackgroundColor=none;endArrow=open;endFill=0;dashed=1;rounded=0;strokeWidth=2;exitX=1;exitY=0.5;exitDx=0;exitDy=0;entryX=0;entryY=0.5;entryDx=0;entryDy=0;" parent="1" source="9RwmldyZn9qF8lHCk9Uj-42" target="tE9FmHmqxmhy-zkVICbS-150" edge="1">
          <mxGeometry width="160" relative="1" as="geometry">
            <mxPoint x="461" y="2760" as="sourcePoint" />
            <mxPoint x="1121" y="2825" as="targetPoint" />
            <mxPoint as="offset" />
          </mxGeometry>
        </mxCell>
        <mxCell id="tE9FmHmqxmhy-zkVICbS-229" value="&amp;lt;&amp;lt;include&amp;gt;&amp;gt;" style="html=1;verticalAlign=bottom;labelBackgroundColor=none;endArrow=open;endFill=0;dashed=1;rounded=0;strokeWidth=2;exitX=1;exitY=0.5;exitDx=0;exitDy=0;entryX=0;entryY=0.5;entryDx=0;entryDy=0;" parent="1" source="9RwmldyZn9qF8lHCk9Uj-31" target="tE9FmHmqxmhy-zkVICbS-149" edge="1">
          <mxGeometry width="160" relative="1" as="geometry">
            <mxPoint x="410.9999999999927" y="2675" as="sourcePoint" />
            <mxPoint x="730.9999999999864" y="2645" as="targetPoint" />
            <mxPoint as="offset" />
          </mxGeometry>
        </mxCell>
        <mxCell id="tE9FmHmqxmhy-zkVICbS-230" value="&amp;lt;&amp;lt;include&amp;gt;&amp;gt;" style="html=1;verticalAlign=bottom;labelBackgroundColor=none;endArrow=open;endFill=0;dashed=1;rounded=0;strokeWidth=2;exitX=1;exitY=0.5;exitDx=0;exitDy=0;entryX=0;entryY=0.5;entryDx=0;entryDy=0;" parent="1" source="9RwmldyZn9qF8lHCk9Uj-25" target="tE9FmHmqxmhy-zkVICbS-144" edge="1">
          <mxGeometry width="160" relative="1" as="geometry">
            <mxPoint x="861" y="2180" as="sourcePoint" />
            <mxPoint x="1021" y="2180" as="targetPoint" />
            <mxPoint as="offset" />
            <Array as="points">
              <mxPoint x="631" y="2285" />
            </Array>
          </mxGeometry>
        </mxCell>
        <mxCell id="tE9FmHmqxmhy-zkVICbS-231" value="&amp;lt;&amp;lt;include&amp;gt;&amp;gt;" style="html=1;verticalAlign=bottom;labelBackgroundColor=none;endArrow=open;endFill=0;dashed=1;rounded=0;strokeWidth=2;exitX=1;exitY=0.5;exitDx=0;exitDy=0;entryX=0;entryY=0.5;entryDx=0;entryDy=0;" parent="1" source="9RwmldyZn9qF8lHCk9Uj-27" target="tE9FmHmqxmhy-zkVICbS-147" edge="1">
          <mxGeometry width="160" relative="1" as="geometry">
            <mxPoint x="431" y="2450" as="sourcePoint" />
            <mxPoint x="1091" y="2565" as="targetPoint" />
            <mxPoint as="offset" />
          </mxGeometry>
        </mxCell>
        <mxCell id="tE9FmHmqxmhy-zkVICbS-232" value="Čuvanje ocene za Smeštaj u kom je boravio" style="ellipse;whiteSpace=wrap;html=1;" parent="1" vertex="1">
          <mxGeometry x="1071" y="2590" width="120" height="70" as="geometry" />
        </mxCell>
        <mxCell id="tE9FmHmqxmhy-zkVICbS-233" value="&amp;lt;&amp;lt;include&amp;gt;&amp;gt;" style="html=1;verticalAlign=bottom;labelBackgroundColor=none;endArrow=open;endFill=0;dashed=1;rounded=0;strokeWidth=2;exitX=1;exitY=0.5;exitDx=0;exitDy=0;entryX=0;entryY=0.5;entryDx=0;entryDy=0;" parent="1" source="9RwmldyZn9qF8lHCk9Uj-43" target="tE9FmHmqxmhy-zkVICbS-232" edge="1">
          <mxGeometry width="160" relative="1" as="geometry">
            <mxPoint x="431" y="2450" as="sourcePoint" />
            <mxPoint x="1091" y="2565" as="targetPoint" />
            <mxPoint as="offset" />
            <Array as="points">
              <mxPoint x="681" y="2510" />
            </Array>
          </mxGeometry>
        </mxCell>
        <mxCell id="tE9FmHmqxmhy-zkVICbS-234" value="&amp;lt;&amp;lt;extend&amp;gt;&amp;gt;" style="html=1;verticalAlign=bottom;labelBackgroundColor=none;endArrow=none;endFill=0;dashed=1;rounded=0;exitX=1;exitY=1;exitDx=0;exitDy=0;entryX=0;entryY=0.5;entryDx=0;entryDy=0;startArrow=open;startFill=0;" parent="1" source="9RwmldyZn9qF8lHCk9Uj-43" target="9RwmldyZn9qF8lHCk9Uj-44" edge="1">
          <mxGeometry width="160" relative="1" as="geometry">
            <mxPoint x="440.99999999999363" y="2551" as="sourcePoint" />
            <mxPoint x="511" y="2550" as="targetPoint" />
            <mxPoint as="offset" />
          </mxGeometry>
        </mxCell>
        <mxCell id="tE9FmHmqxmhy-zkVICbS-235" value="&amp;lt;&amp;lt;include&amp;gt;&amp;gt;" style="html=1;verticalAlign=bottom;labelBackgroundColor=none;endArrow=open;endFill=0;dashed=1;rounded=0;strokeWidth=2;exitX=1;exitY=0.5;exitDx=0;exitDy=0;entryX=0;entryY=0.5;entryDx=0;entryDy=0;" parent="1" source="9RwmldyZn9qF8lHCk9Uj-44" target="tE9FmHmqxmhy-zkVICbS-236" edge="1">
          <mxGeometry width="160" relative="1" as="geometry">
            <mxPoint x="711" y="2620" as="sourcePoint" />
            <mxPoint x="861" y="2610" as="targetPoint" />
            <mxPoint as="offset" />
          </mxGeometry>
        </mxCell>
        <mxCell id="tE9FmHmqxmhy-zkVICbS-236" value="Čuvanje preporuke za renovaciju Smeštaja u kom je boravio" style="ellipse;whiteSpace=wrap;html=1;" parent="1" vertex="1">
          <mxGeometry x="1031" y="2670" width="140" height="90" as="geometry" />
        </mxCell>
        <mxCell id="tE9FmHmqxmhy-zkVICbS-237" value="&amp;lt;&amp;lt;include&amp;gt;&amp;gt;" style="html=1;verticalAlign=bottom;labelBackgroundColor=none;endArrow=open;endFill=0;dashed=1;rounded=0;strokeWidth=2;exitX=1;exitY=0.5;exitDx=0;exitDy=0;entryX=0;entryY=0.5;entryDx=0;entryDy=0;" parent="1" source="9RwmldyZn9qF8lHCk9Uj-36" target="tE9FmHmqxmhy-zkVICbS-163" edge="1">
          <mxGeometry width="160" relative="1" as="geometry">
            <mxPoint x="410.9999999999927" y="2675" as="sourcePoint" />
            <mxPoint x="580.9999999999864" y="2725" as="targetPoint" />
            <mxPoint as="offset" />
          </mxGeometry>
        </mxCell>
        <mxCell id="tE9FmHmqxmhy-zkVICbS-238" value="&amp;lt;&amp;lt;include&amp;gt;&amp;gt;" style="html=1;verticalAlign=bottom;labelBackgroundColor=none;endArrow=open;endFill=0;dashed=1;rounded=0;strokeWidth=2;exitX=1;exitY=0.5;exitDx=0;exitDy=0;entryX=0;entryY=0.5;entryDx=0;entryDy=0;" parent="1" source="tE9FmHmqxmhy-zkVICbS-86" target="tE9FmHmqxmhy-zkVICbS-142" edge="1">
          <mxGeometry width="160" relative="1" as="geometry">
            <mxPoint x="400.99999999999955" y="3120" as="sourcePoint" />
            <mxPoint x="560.9999999999995" y="3120" as="targetPoint" />
            <mxPoint as="offset" />
          </mxGeometry>
        </mxCell>
        <mxCell id="tE9FmHmqxmhy-zkVICbS-239" value="&amp;lt;&amp;lt;include&amp;gt;&amp;gt;" style="html=1;verticalAlign=bottom;labelBackgroundColor=none;endArrow=open;endFill=0;dashed=1;rounded=0;strokeWidth=2;exitX=1;exitY=0.5;exitDx=0;exitDy=0;entryX=0;entryY=0.5;entryDx=0;entryDy=0;" parent="1" source="tE9FmHmqxmhy-zkVICbS-250" target="tE9FmHmqxmhy-zkVICbS-146" edge="1">
          <mxGeometry width="160" relative="1" as="geometry">
            <mxPoint x="510.99999999999955" y="3519.9999999999995" as="sourcePoint" />
            <mxPoint x="670.9999999999995" y="3519.9999999999995" as="targetPoint" />
            <mxPoint as="offset" />
          </mxGeometry>
        </mxCell>
        <mxCell id="tE9FmHmqxmhy-zkVICbS-240" value="&amp;lt;&amp;lt;include&amp;gt;&amp;gt;" style="html=1;verticalAlign=bottom;labelBackgroundColor=none;endArrow=open;endFill=0;dashed=1;rounded=0;strokeWidth=2;exitX=1;exitY=0.5;exitDx=0;exitDy=0;entryX=0;entryY=0.5;entryDx=0;entryDy=0;" parent="1" source="tE9FmHmqxmhy-zkVICbS-87" target="tE9FmHmqxmhy-zkVICbS-164" edge="1">
          <mxGeometry width="160" relative="1" as="geometry">
            <mxPoint x="411.0000000000002" y="3125" as="sourcePoint" />
            <mxPoint x="551.0000000000002" y="3135" as="targetPoint" />
            <mxPoint as="offset" />
          </mxGeometry>
        </mxCell>
        <mxCell id="tE9FmHmqxmhy-zkVICbS-241" value="&amp;lt;&amp;lt;include&amp;gt;&amp;gt;" style="html=1;verticalAlign=bottom;labelBackgroundColor=none;endArrow=open;endFill=0;dashed=1;rounded=0;strokeWidth=2;exitX=1;exitY=0.5;exitDx=0;exitDy=0;entryX=0;entryY=0.5;entryDx=0;entryDy=0;" parent="1" source="tE9FmHmqxmhy-zkVICbS-93" target="tE9FmHmqxmhy-zkVICbS-153" edge="1">
          <mxGeometry width="160" relative="1" as="geometry">
            <mxPoint x="390.99999999999955" y="3330" as="sourcePoint" />
            <mxPoint x="550.9999999999995" y="3330" as="targetPoint" />
            <mxPoint as="offset" />
          </mxGeometry>
        </mxCell>
        <mxCell id="tE9FmHmqxmhy-zkVICbS-242" value="&amp;lt;&amp;lt;include&amp;gt;&amp;gt;" style="html=1;verticalAlign=bottom;labelBackgroundColor=none;endArrow=open;endFill=0;dashed=1;rounded=0;strokeWidth=2;exitX=1;exitY=0.5;exitDx=0;exitDy=0;entryX=0;entryY=0.5;entryDx=0;entryDy=0;" parent="1" source="tE9FmHmqxmhy-zkVICbS-94" target="tE9FmHmqxmhy-zkVICbS-157" edge="1">
          <mxGeometry width="160" relative="1" as="geometry">
            <mxPoint x="500.99999999999955" y="3510" as="sourcePoint" />
            <mxPoint x="660.9999999999995" y="3510" as="targetPoint" />
            <mxPoint as="offset" />
          </mxGeometry>
        </mxCell>
        <mxCell id="tE9FmHmqxmhy-zkVICbS-243" value="&amp;lt;&amp;lt;include&amp;gt;&amp;gt;" style="html=1;verticalAlign=bottom;labelBackgroundColor=none;endArrow=open;endFill=0;dashed=1;rounded=0;strokeWidth=2;exitX=1;exitY=0.5;exitDx=0;exitDy=0;entryX=0;entryY=0.5;entryDx=0;entryDy=0;" parent="1" source="tE9FmHmqxmhy-zkVICbS-90" target="tE9FmHmqxmhy-zkVICbS-161" edge="1">
          <mxGeometry width="160" relative="1" as="geometry">
            <mxPoint x="500.99999999999955" y="3510" as="sourcePoint" />
            <mxPoint x="660.9999999999995" y="3510" as="targetPoint" />
            <mxPoint as="offset" />
          </mxGeometry>
        </mxCell>
        <mxCell id="tE9FmHmqxmhy-zkVICbS-244" value="&amp;lt;&amp;lt;include&amp;gt;&amp;gt;" style="html=1;verticalAlign=bottom;labelBackgroundColor=none;endArrow=open;endFill=0;dashed=1;rounded=0;strokeWidth=2;exitX=1;exitY=0.5;exitDx=0;exitDy=0;entryX=0;entryY=0.5;entryDx=0;entryDy=0;" parent="1" source="tE9FmHmqxmhy-zkVICbS-92" target="tE9FmHmqxmhy-zkVICbS-158" edge="1">
          <mxGeometry width="160" relative="1" as="geometry">
            <mxPoint x="430.99999999999955" y="3180" as="sourcePoint" />
            <mxPoint x="590.9999999999995" y="3180" as="targetPoint" />
            <mxPoint as="offset" />
          </mxGeometry>
        </mxCell>
        <mxCell id="tE9FmHmqxmhy-zkVICbS-245" value="&amp;lt;&amp;lt;include&amp;gt;&amp;gt;" style="html=1;verticalAlign=bottom;labelBackgroundColor=none;endArrow=open;endFill=0;dashed=1;rounded=0;strokeWidth=2;exitX=1;exitY=0.5;exitDx=0;exitDy=0;entryX=0;entryY=0.5;entryDx=0;entryDy=0;" parent="1" source="tE9FmHmqxmhy-zkVICbS-89" target="tE9FmHmqxmhy-zkVICbS-148" edge="1">
          <mxGeometry width="160" relative="1" as="geometry">
            <mxPoint x="411" y="3125" as="sourcePoint" />
            <mxPoint x="551.0000000000027" y="3135" as="targetPoint" />
            <mxPoint as="offset" />
            <Array as="points">
              <mxPoint x="731" y="2965" />
            </Array>
          </mxGeometry>
        </mxCell>
        <mxCell id="tE9FmHmqxmhy-zkVICbS-246" value="Računanje statistike o smeštaju" style="ellipse;whiteSpace=wrap;html=1;" parent="1" vertex="1">
          <mxGeometry x="1071" y="2970" width="130" height="60" as="geometry" />
        </mxCell>
        <mxCell id="tE9FmHmqxmhy-zkVICbS-247" value="&amp;lt;&amp;lt;include&amp;gt;&amp;gt;" style="html=1;verticalAlign=bottom;labelBackgroundColor=none;endArrow=open;endFill=0;dashed=1;rounded=0;strokeWidth=2;exitX=1;exitY=0.5;exitDx=0;exitDy=0;entryX=0;entryY=0.5;entryDx=0;entryDy=0;" parent="1" source="tE9FmHmqxmhy-zkVICbS-96" target="tE9FmHmqxmhy-zkVICbS-246" edge="1">
          <mxGeometry width="160" relative="1" as="geometry">
            <mxPoint x="410.99999999999864" y="2975" as="sourcePoint" />
            <mxPoint x="1090.9999999999882" y="3085" as="targetPoint" />
            <mxPoint as="offset" />
          </mxGeometry>
        </mxCell>
        <mxCell id="tE9FmHmqxmhy-zkVICbS-248" value="&amp;lt;&amp;lt;include&amp;gt;&amp;gt;" style="html=1;verticalAlign=bottom;labelBackgroundColor=none;endArrow=open;endFill=0;dashed=1;rounded=0;strokeWidth=2;exitX=1;exitY=0.5;exitDx=0;exitDy=0;entryX=0;entryY=0.5;entryDx=0;entryDy=0;" parent="1" source="tE9FmHmqxmhy-zkVICbS-91" target="tE9FmHmqxmhy-zkVICbS-148" edge="1">
          <mxGeometry width="160" relative="1" as="geometry">
            <mxPoint x="410.99999999999864" y="2975" as="sourcePoint" />
            <mxPoint x="1090.9999999999882" y="3085" as="targetPoint" />
            <mxPoint as="offset" />
            <Array as="points">
              <mxPoint x="721" y="3040" />
            </Array>
          </mxGeometry>
        </mxCell>
        <mxCell id="tE9FmHmqxmhy-zkVICbS-249" value="&amp;lt;&amp;lt;include&amp;gt;&amp;gt;" style="html=1;verticalAlign=bottom;labelBackgroundColor=none;endArrow=open;endFill=0;dashed=1;rounded=0;strokeWidth=2;exitX=1;exitY=0.5;exitDx=0;exitDy=0;entryX=0;entryY=0.5;entryDx=0;entryDy=0;" parent="1" source="tE9FmHmqxmhy-zkVICbS-149" target="tE9FmHmqxmhy-zkVICbS-162" edge="1">
          <mxGeometry width="160" relative="1" as="geometry">
            <mxPoint x="850.9999999999991" y="2980" as="sourcePoint" />
            <mxPoint x="1010.9999999999991" y="2980" as="targetPoint" />
            <mxPoint as="offset" />
          </mxGeometry>
        </mxCell>
        <mxCell id="tE9FmHmqxmhy-zkVICbS-250" value="Pregled Zahteva za pomeranje rezervacije" style="ellipse;whiteSpace=wrap;html=1;" parent="1" vertex="1">
          <mxGeometry x="241" y="3510" width="140" height="70" as="geometry" />
        </mxCell>
        <mxCell id="tE9FmHmqxmhy-zkVICbS-251" value="Pregled Renovacija" style="ellipse;whiteSpace=wrap;html=1;" parent="1" vertex="1">
          <mxGeometry x="241" y="3590" width="140" height="70" as="geometry" />
        </mxCell>
        <mxCell id="tE9FmHmqxmhy-zkVICbS-252" value="&amp;lt;&amp;lt;include&amp;gt;&amp;gt;" style="html=1;verticalAlign=bottom;labelBackgroundColor=none;endArrow=open;endFill=0;dashed=1;rounded=0;strokeWidth=2;exitX=1;exitY=0.5;exitDx=0;exitDy=0;entryX=0;entryY=0.5;entryDx=0;entryDy=0;" parent="1" source="tE9FmHmqxmhy-zkVICbS-251" target="tE9FmHmqxmhy-zkVICbS-152" edge="1">
          <mxGeometry width="160" relative="1" as="geometry">
            <mxPoint x="391" y="3555" as="sourcePoint" />
            <mxPoint x="1091" y="3575" as="targetPoint" />
            <mxPoint as="offset" />
          </mxGeometry>
        </mxCell>
        <mxCell id="tE9FmHmqxmhy-zkVICbS-253" value="" style="endArrow=none;html=1;rounded=0;entryX=0;entryY=0.5;entryDx=0;entryDy=0;exitX=1;exitY=0.3333333333333333;exitDx=0;exitDy=0;exitPerimeter=0;" parent="1" source="tE9FmHmqxmhy-zkVICbS-98" target="tE9FmHmqxmhy-zkVICbS-250" edge="1">
          <mxGeometry width="50" height="50" relative="1" as="geometry">
            <mxPoint x="181" y="2980" as="sourcePoint" />
            <mxPoint x="241" y="3480" as="targetPoint" />
            <Array as="points">
              <mxPoint x="191" y="3370" />
            </Array>
          </mxGeometry>
        </mxCell>
        <mxCell id="tE9FmHmqxmhy-zkVICbS-254" value="" style="endArrow=none;html=1;rounded=0;entryX=0;entryY=0.5;entryDx=0;entryDy=0;exitX=1;exitY=0.3333333333333333;exitDx=0;exitDy=0;exitPerimeter=0;" parent="1" source="tE9FmHmqxmhy-zkVICbS-98" target="tE9FmHmqxmhy-zkVICbS-251" edge="1">
          <mxGeometry width="50" height="50" relative="1" as="geometry">
            <mxPoint x="180.99999999999977" y="2980" as="sourcePoint" />
            <mxPoint x="250.99999999999977" y="3555" as="targetPoint" />
            <Array as="points">
              <mxPoint x="181" y="3390" />
            </Array>
          </mxGeometry>
        </mxCell>
        <mxCell id="tE9FmHmqxmhy-zkVICbS-255" value="Pregled Notifikacija" style="ellipse;whiteSpace=wrap;html=1;" parent="1" vertex="1">
          <mxGeometry x="241" y="3670" width="140" height="50" as="geometry" />
        </mxCell>
        <mxCell id="tE9FmHmqxmhy-zkVICbS-256" value="" style="endArrow=none;html=1;rounded=0;entryX=0;entryY=0.5;entryDx=0;entryDy=0;exitX=1;exitY=0.3333333333333333;exitDx=0;exitDy=0;exitPerimeter=0;" parent="1" source="tE9FmHmqxmhy-zkVICbS-98" target="tE9FmHmqxmhy-zkVICbS-255" edge="1">
          <mxGeometry width="50" height="50" relative="1" as="geometry">
            <mxPoint x="181" y="2980" as="sourcePoint" />
            <mxPoint x="251" y="3635" as="targetPoint" />
            <Array as="points">
              <mxPoint x="161" y="3400" />
            </Array>
          </mxGeometry>
        </mxCell>
        <mxCell id="tE9FmHmqxmhy-zkVICbS-257" value="&amp;lt;&amp;lt;include&amp;gt;&amp;gt;" style="html=1;verticalAlign=bottom;labelBackgroundColor=none;endArrow=open;endFill=0;dashed=1;rounded=0;strokeWidth=2;exitX=1;exitY=0.5;exitDx=0;exitDy=0;entryX=0.5;entryY=1;entryDx=0;entryDy=0;" parent="1" source="tE9FmHmqxmhy-zkVICbS-255" target="tE9FmHmqxmhy-zkVICbS-128" edge="1">
          <mxGeometry width="160" relative="1" as="geometry">
            <mxPoint x="431" y="3720" as="sourcePoint" />
            <mxPoint x="591" y="3720" as="targetPoint" />
            <mxPoint as="offset" />
          </mxGeometry>
        </mxCell>
        <mxCell id="tE9FmHmqxmhy-zkVICbS-258" value="&amp;lt;&amp;lt;include&amp;gt;&amp;gt;" style="html=1;verticalAlign=bottom;labelBackgroundColor=none;endArrow=open;endFill=0;dashed=1;rounded=0;strokeWidth=2;exitX=1;exitY=0.5;exitDx=0;exitDy=0;entryX=0;entryY=0.5;entryDx=0;entryDy=0;" parent="1" source="9RwmldyZn9qF8lHCk9Uj-93" target="tE9FmHmqxmhy-zkVICbS-127" edge="1">
          <mxGeometry width="160" relative="1" as="geometry">
            <mxPoint x="1251" y="2130.0000000000005" as="sourcePoint" />
            <mxPoint x="1411.0000000000005" y="2130.0000000000005" as="targetPoint" />
            <mxPoint as="offset" />
          </mxGeometry>
        </mxCell>
        <mxCell id="tE9FmHmqxmhy-zkVICbS-259" value="Kreiranje nove lokacije" style="ellipse;whiteSpace=wrap;html=1;" parent="1" vertex="1">
          <mxGeometry x="1151" y="2110" width="100" height="70" as="geometry" />
        </mxCell>
        <mxCell id="tE9FmHmqxmhy-zkVICbS-260" value="&amp;lt;&amp;lt;include&amp;gt;&amp;gt;" style="html=1;verticalAlign=bottom;labelBackgroundColor=none;endArrow=open;endFill=0;dashed=1;rounded=0;strokeWidth=2;exitX=1;exitY=0.5;exitDx=0;exitDy=0;entryX=0;entryY=0.5;entryDx=0;entryDy=0;" parent="1" source="tE9FmHmqxmhy-zkVICbS-259" target="tE9FmHmqxmhy-zkVICbS-136" edge="1">
          <mxGeometry width="160" relative="1" as="geometry">
            <mxPoint x="1121.0000000000005" y="2139.9999999999995" as="sourcePoint" />
            <mxPoint x="1281.0000000000005" y="2139.9999999999995" as="targetPoint" />
            <mxPoint as="offset" />
          </mxGeometry>
        </mxCell>
        <mxCell id="tE9FmHmqxmhy-zkVICbS-261" value="&amp;lt;&amp;lt;include&amp;gt;&amp;gt;" style="html=1;verticalAlign=bottom;labelBackgroundColor=none;endArrow=open;endFill=0;dashed=1;rounded=0;strokeWidth=2;exitX=1;exitY=0.5;exitDx=0;exitDy=0;entryX=1;entryY=0;entryDx=0;entryDy=0;" parent="1" source="tE9FmHmqxmhy-zkVICbS-122" target="tE9FmHmqxmhy-zkVICbS-259" edge="1">
          <mxGeometry width="160" relative="1" as="geometry">
            <mxPoint x="1571.0000000000005" y="2299.9999999999995" as="sourcePoint" />
            <mxPoint x="1731.0000000000005" y="2299.9999999999995" as="targetPoint" />
            <mxPoint as="offset" />
            <Array as="points">
              <mxPoint x="1211" y="1890" />
            </Array>
          </mxGeometry>
        </mxCell>
        <mxCell id="tE9FmHmqxmhy-zkVICbS-262" value="&amp;lt;&amp;lt;include&amp;gt;&amp;gt;" style="html=1;verticalAlign=bottom;labelBackgroundColor=none;endArrow=open;endFill=0;dashed=1;rounded=0;strokeWidth=2;exitX=1;exitY=0.5;exitDx=0;exitDy=0;entryX=1;entryY=0;entryDx=0;entryDy=0;" parent="1" source="tE9FmHmqxmhy-zkVICbS-131" target="tE9FmHmqxmhy-zkVICbS-259" edge="1">
          <mxGeometry width="160" relative="1" as="geometry">
            <mxPoint x="1251.0000000000005" y="769.9999999999995" as="sourcePoint" />
            <mxPoint x="1411.0000000000005" y="769.9999999999995" as="targetPoint" />
            <mxPoint as="offset" />
          </mxGeometry>
        </mxCell>
        <mxCell id="tE9FmHmqxmhy-zkVICbS-263" value="&amp;lt;&amp;lt;include&amp;gt;&amp;gt;" style="html=1;verticalAlign=bottom;labelBackgroundColor=none;endArrow=open;endFill=0;dashed=1;rounded=0;strokeWidth=2;exitX=1;exitY=0.5;exitDx=0;exitDy=0;entryX=1;entryY=0;entryDx=0;entryDy=0;" parent="1" source="tE9FmHmqxmhy-zkVICbS-134" target="tE9FmHmqxmhy-zkVICbS-259" edge="1">
          <mxGeometry width="160" relative="1" as="geometry">
            <mxPoint x="1211" y="760" as="sourcePoint" />
            <mxPoint x="1246.7179290687563" y="2130.507705781425" as="targetPoint" />
            <mxPoint as="offset" />
            <Array as="points">
              <mxPoint x="1291" y="1020" />
            </Array>
          </mxGeometry>
        </mxCell>
        <mxCell id="tE9FmHmqxmhy-zkVICbS-264" value="&amp;lt;&amp;lt;include&amp;gt;&amp;gt;" style="html=1;verticalAlign=bottom;labelBackgroundColor=none;endArrow=open;endFill=0;dashed=1;rounded=0;strokeWidth=2;exitX=1;exitY=0.5;exitDx=0;exitDy=0;entryX=1;entryY=1;entryDx=0;entryDy=0;" parent="1" source="tE9FmHmqxmhy-zkVICbS-142" target="tE9FmHmqxmhy-zkVICbS-259" edge="1">
          <mxGeometry width="160" relative="1" as="geometry">
            <mxPoint x="1221.0000000000005" y="3169.9999999999995" as="sourcePoint" />
            <mxPoint x="1381.0000000000005" y="3169.9999999999995" as="targetPoint" />
            <mxPoint as="offset" />
            <Array as="points">
              <mxPoint x="1237" y="2670" />
            </Array>
          </mxGeometry>
        </mxCell>
        <mxCell id="tE9FmHmqxmhy-zkVICbS-265" value="" style="endArrow=none;html=1;rounded=0;exitX=1;exitY=0.5;exitDx=0;exitDy=0;entryX=0;entryY=0.3333333333333333;entryDx=0;entryDy=0;entryPerimeter=0;" parent="1" source="tE9FmHmqxmhy-zkVICbS-136" target="9RwmldyZn9qF8lHCk9Uj-51" edge="1">
          <mxGeometry width="50" height="50" relative="1" as="geometry">
            <mxPoint x="1471" y="2190" as="sourcePoint" />
            <mxPoint x="1541" y="2120" as="targetPoint" />
          </mxGeometry>
        </mxCell>
        <mxCell id="un479x4jC4dVIiOcwHKK-2" value="" style="endArrow=none;html=1;rounded=0;exitX=1;exitY=0.5;exitDx=0;exitDy=0;entryX=0;entryY=0.3333333333333333;entryDx=0;entryDy=0;entryPerimeter=0;" parent="1" source="tE9FmHmqxmhy-zkVICbS-127" target="9RwmldyZn9qF8lHCk9Uj-51" edge="1">
          <mxGeometry width="50" height="50" relative="1" as="geometry">
            <mxPoint x="1411" y="2205" as="sourcePoint" />
            <mxPoint x="1601" y="2090" as="targetPoint" />
          </mxGeometry>
        </mxCell>
        <mxCell id="un479x4jC4dVIiOcwHKK-3" value="" style="endArrow=none;html=1;rounded=0;exitX=1;exitY=0.5;exitDx=0;exitDy=0;entryX=0;entryY=0.3333333333333333;entryDx=0;entryDy=0;entryPerimeter=0;" parent="1" source="tE9FmHmqxmhy-zkVICbS-129" target="9RwmldyZn9qF8lHCk9Uj-51" edge="1">
          <mxGeometry width="50" height="50" relative="1" as="geometry">
            <mxPoint x="1191" y="2055" as="sourcePoint" />
            <mxPoint x="1601" y="2090" as="targetPoint" />
          </mxGeometry>
        </mxCell>
        <mxCell id="un479x4jC4dVIiOcwHKK-4" value="" style="endArrow=none;html=1;rounded=0;exitX=1;exitY=0.5;exitDx=0;exitDy=0;entryX=0;entryY=0.3333333333333333;entryDx=0;entryDy=0;entryPerimeter=0;" parent="1" source="tE9FmHmqxmhy-zkVICbS-135" target="9RwmldyZn9qF8lHCk9Uj-51" edge="1">
          <mxGeometry width="50" height="50" relative="1" as="geometry">
            <mxPoint x="1191" y="1965" as="sourcePoint" />
            <mxPoint x="1601" y="2090" as="targetPoint" />
          </mxGeometry>
        </mxCell>
        <mxCell id="un479x4jC4dVIiOcwHKK-5" value="" style="endArrow=none;html=1;rounded=0;exitX=1;exitY=0.5;exitDx=0;exitDy=0;entryX=0;entryY=0.3333333333333333;entryDx=0;entryDy=0;entryPerimeter=0;" parent="1" source="tE9FmHmqxmhy-zkVICbS-204" target="9RwmldyZn9qF8lHCk9Uj-51" edge="1">
          <mxGeometry width="50" height="50" relative="1" as="geometry">
            <mxPoint x="1199" y="1855" as="sourcePoint" />
            <mxPoint x="1601" y="2090" as="targetPoint" />
          </mxGeometry>
        </mxCell>
        <mxCell id="un479x4jC4dVIiOcwHKK-6" value="" style="endArrow=none;html=1;rounded=0;exitX=1;exitY=0.5;exitDx=0;exitDy=0;entryX=0;entryY=0.3333333333333333;entryDx=0;entryDy=0;entryPerimeter=0;" parent="1" source="tE9FmHmqxmhy-zkVICbS-193" target="9RwmldyZn9qF8lHCk9Uj-51" edge="1">
          <mxGeometry width="50" height="50" relative="1" as="geometry">
            <mxPoint x="1181" y="1775" as="sourcePoint" />
            <mxPoint x="1601" y="2090" as="targetPoint" />
          </mxGeometry>
        </mxCell>
        <mxCell id="un479x4jC4dVIiOcwHKK-7" value="" style="endArrow=none;html=1;rounded=0;exitX=1;exitY=0.5;exitDx=0;exitDy=0;entryX=0;entryY=0.3333333333333333;entryDx=0;entryDy=0;entryPerimeter=0;" parent="1" source="tE9FmHmqxmhy-zkVICbS-123" target="9RwmldyZn9qF8lHCk9Uj-51" edge="1">
          <mxGeometry width="50" height="50" relative="1" as="geometry">
            <mxPoint x="1181" y="1625" as="sourcePoint" />
            <mxPoint x="1601" y="2090" as="targetPoint" />
          </mxGeometry>
        </mxCell>
        <mxCell id="un479x4jC4dVIiOcwHKK-8" value="" style="endArrow=none;html=1;rounded=0;exitX=1;exitY=0.5;exitDx=0;exitDy=0;entryX=0;entryY=0.3333333333333333;entryDx=0;entryDy=0;entryPerimeter=0;" parent="1" source="tE9FmHmqxmhy-zkVICbS-218" target="9RwmldyZn9qF8lHCk9Uj-51" edge="1">
          <mxGeometry width="50" height="50" relative="1" as="geometry">
            <mxPoint x="1191" y="1405" as="sourcePoint" />
            <mxPoint x="1601" y="2090" as="targetPoint" />
          </mxGeometry>
        </mxCell>
        <mxCell id="un479x4jC4dVIiOcwHKK-9" value="" style="endArrow=none;html=1;rounded=0;exitX=1;exitY=0.5;exitDx=0;exitDy=0;entryX=0;entryY=0.3333333333333333;entryDx=0;entryDy=0;entryPerimeter=0;" parent="1" source="tE9FmHmqxmhy-zkVICbS-207" target="9RwmldyZn9qF8lHCk9Uj-51" edge="1">
          <mxGeometry width="50" height="50" relative="1" as="geometry">
            <mxPoint x="1181" y="1260" as="sourcePoint" />
            <mxPoint x="1611" y="2100" as="targetPoint" />
          </mxGeometry>
        </mxCell>
        <mxCell id="un479x4jC4dVIiOcwHKK-10" value="" style="endArrow=none;html=1;rounded=0;exitX=1;exitY=0.5;exitDx=0;exitDy=0;entryX=0;entryY=0.3333333333333333;entryDx=0;entryDy=0;entryPerimeter=0;" parent="1" source="tE9FmHmqxmhy-zkVICbS-155" target="9RwmldyZn9qF8lHCk9Uj-51" edge="1">
          <mxGeometry width="50" height="50" relative="1" as="geometry">
            <mxPoint x="1181" y="1145" as="sourcePoint" />
            <mxPoint x="1601" y="2090" as="targetPoint" />
          </mxGeometry>
        </mxCell>
        <mxCell id="un479x4jC4dVIiOcwHKK-11" value="" style="endArrow=none;html=1;rounded=0;exitX=1;exitY=0.5;exitDx=0;exitDy=0;entryX=0;entryY=0.3333333333333333;entryDx=0;entryDy=0;entryPerimeter=0;" parent="1" source="tE9FmHmqxmhy-zkVICbS-133" target="9RwmldyZn9qF8lHCk9Uj-51" edge="1">
          <mxGeometry width="50" height="50" relative="1" as="geometry">
            <mxPoint x="1181" y="1070" as="sourcePoint" />
            <mxPoint x="1611" y="2100" as="targetPoint" />
          </mxGeometry>
        </mxCell>
        <mxCell id="un479x4jC4dVIiOcwHKK-12" value="" style="endArrow=none;html=1;rounded=0;exitX=1;exitY=0.5;exitDx=0;exitDy=0;entryX=0;entryY=0.3333333333333333;entryDx=0;entryDy=0;entryPerimeter=0;" parent="1" source="tE9FmHmqxmhy-zkVICbS-186" target="9RwmldyZn9qF8lHCk9Uj-51" edge="1">
          <mxGeometry width="50" height="50" relative="1" as="geometry">
            <mxPoint x="1211" y="930" as="sourcePoint" />
            <mxPoint x="1621" y="2110" as="targetPoint" />
          </mxGeometry>
        </mxCell>
        <mxCell id="un479x4jC4dVIiOcwHKK-14" value="" style="endArrow=none;html=1;rounded=0;exitX=1;exitY=0.5;exitDx=0;exitDy=0;" parent="1" source="tE9FmHmqxmhy-zkVICbS-126" edge="1">
          <mxGeometry width="50" height="50" relative="1" as="geometry">
            <mxPoint x="1201" y="835" as="sourcePoint" />
            <mxPoint x="1590" y="2080" as="targetPoint" />
          </mxGeometry>
        </mxCell>
        <mxCell id="un479x4jC4dVIiOcwHKK-15" value="" style="endArrow=none;html=1;rounded=0;exitX=1;exitY=0.5;exitDx=0;exitDy=0;entryX=0;entryY=0.3333333333333333;entryDx=0;entryDy=0;entryPerimeter=0;" parent="1" source="tE9FmHmqxmhy-zkVICbS-130" target="9RwmldyZn9qF8lHCk9Uj-51" edge="1">
          <mxGeometry width="50" height="50" relative="1" as="geometry">
            <mxPoint x="1201" y="660" as="sourcePoint" />
            <mxPoint x="1641" y="2130" as="targetPoint" />
          </mxGeometry>
        </mxCell>
        <mxCell id="un479x4jC4dVIiOcwHKK-16" value="" style="endArrow=none;html=1;rounded=0;exitX=1;exitY=0.5;exitDx=0;exitDy=0;entryX=0;entryY=0.3333333333333333;entryDx=0;entryDy=0;entryPerimeter=0;" parent="1" source="tE9FmHmqxmhy-zkVICbS-124" target="9RwmldyZn9qF8lHCk9Uj-51" edge="1">
          <mxGeometry width="50" height="50" relative="1" as="geometry">
            <mxPoint x="1161" y="595" as="sourcePoint" />
            <mxPoint x="1651" y="2140" as="targetPoint" />
          </mxGeometry>
        </mxCell>
        <mxCell id="un479x4jC4dVIiOcwHKK-17" value="" style="endArrow=none;html=1;rounded=0;exitX=1;exitY=0.5;exitDx=0;exitDy=0;entryX=0;entryY=0.3333333333333333;entryDx=0;entryDy=0;entryPerimeter=0;" parent="1" source="tE9FmHmqxmhy-zkVICbS-119" target="9RwmldyZn9qF8lHCk9Uj-51" edge="1">
          <mxGeometry width="50" height="50" relative="1" as="geometry">
            <mxPoint x="1180" y="515" as="sourcePoint" />
            <mxPoint x="1661" y="2150" as="targetPoint" />
          </mxGeometry>
        </mxCell>
        <mxCell id="un479x4jC4dVIiOcwHKK-18" value="" style="endArrow=none;html=1;rounded=0;exitX=1;exitY=0.5;exitDx=0;exitDy=0;entryX=0;entryY=0.3333333333333333;entryDx=0;entryDy=0;entryPerimeter=0;" parent="1" source="tE9FmHmqxmhy-zkVICbS-118" target="9RwmldyZn9qF8lHCk9Uj-51" edge="1">
          <mxGeometry width="50" height="50" relative="1" as="geometry">
            <mxPoint x="1220" y="455" as="sourcePoint" />
            <mxPoint x="1671" y="2160" as="targetPoint" />
          </mxGeometry>
        </mxCell>
        <mxCell id="un479x4jC4dVIiOcwHKK-19" value="" style="endArrow=none;html=1;rounded=0;exitX=1;exitY=0.5;exitDx=0;exitDy=0;entryX=0;entryY=0.3333333333333333;entryDx=0;entryDy=0;entryPerimeter=0;" parent="1" source="9RwmldyZn9qF8lHCk9Uj-90" target="9RwmldyZn9qF8lHCk9Uj-51" edge="1">
          <mxGeometry width="50" height="50" relative="1" as="geometry">
            <mxPoint x="1280" y="395" as="sourcePoint" />
            <mxPoint x="1681" y="2170" as="targetPoint" />
          </mxGeometry>
        </mxCell>
        <mxCell id="un479x4jC4dVIiOcwHKK-20" value="" style="endArrow=none;html=1;rounded=0;exitX=1;exitY=0.5;exitDx=0;exitDy=0;entryX=0;entryY=0.3333333333333333;entryDx=0;entryDy=0;entryPerimeter=0;" parent="1" source="tE9FmHmqxmhy-zkVICbS-121" target="9RwmldyZn9qF8lHCk9Uj-51" edge="1">
          <mxGeometry width="50" height="50" relative="1" as="geometry">
            <mxPoint x="1340" y="305" as="sourcePoint" />
            <mxPoint x="1691" y="2180" as="targetPoint" />
            <Array as="points">
              <mxPoint x="1320" y="220" />
              <mxPoint x="1450" y="430" />
            </Array>
          </mxGeometry>
        </mxCell>
        <mxCell id="un479x4jC4dVIiOcwHKK-21" value="" style="endArrow=none;html=1;rounded=0;exitX=1;exitY=0.5;exitDx=0;exitDy=0;" parent="1" source="tE9FmHmqxmhy-zkVICbS-140" edge="1">
          <mxGeometry width="50" height="50" relative="1" as="geometry">
            <mxPoint x="1191" y="2055" as="sourcePoint" />
            <mxPoint x="1590" y="2080" as="targetPoint" />
            <Array as="points">
              <mxPoint x="1260" y="2070" />
            </Array>
          </mxGeometry>
        </mxCell>
        <mxCell id="un479x4jC4dVIiOcwHKK-22" value="" style="endArrow=none;html=1;rounded=0;exitX=1;exitY=0.5;exitDx=0;exitDy=0;entryX=0;entryY=0.3333333333333333;entryDx=0;entryDy=0;entryPerimeter=0;" parent="1" source="9RwmldyZn9qF8lHCk9Uj-23" target="9RwmldyZn9qF8lHCk9Uj-51" edge="1">
          <mxGeometry width="50" height="50" relative="1" as="geometry">
            <mxPoint x="1411" y="2205" as="sourcePoint" />
            <mxPoint x="1601" y="2090" as="targetPoint" />
            <Array as="points">
              <mxPoint x="1260" y="2180" />
            </Array>
          </mxGeometry>
        </mxCell>
        <mxCell id="un479x4jC4dVIiOcwHKK-23" value="" style="endArrow=none;html=1;rounded=0;exitX=1;exitY=0.5;exitDx=0;exitDy=0;entryX=0;entryY=0.3333333333333333;entryDx=0;entryDy=0;entryPerimeter=0;" parent="1" source="tE9FmHmqxmhy-zkVICbS-144" target="9RwmldyZn9qF8lHCk9Uj-51" edge="1">
          <mxGeometry width="50" height="50" relative="1" as="geometry">
            <mxPoint x="1411" y="2205" as="sourcePoint" />
            <mxPoint x="1601" y="2090" as="targetPoint" />
            <Array as="points">
              <mxPoint x="1400" y="2230" />
            </Array>
          </mxGeometry>
        </mxCell>
        <mxCell id="un479x4jC4dVIiOcwHKK-24" value="" style="endArrow=none;html=1;rounded=0;exitX=1;exitY=0.5;exitDx=0;exitDy=0;entryX=0;entryY=0.3333333333333333;entryDx=0;entryDy=0;entryPerimeter=0;" parent="1" source="tE9FmHmqxmhy-zkVICbS-143" target="9RwmldyZn9qF8lHCk9Uj-51" edge="1">
          <mxGeometry width="50" height="50" relative="1" as="geometry">
            <mxPoint x="1411" y="2205" as="sourcePoint" />
            <mxPoint x="1601" y="2090" as="targetPoint" />
            <Array as="points">
              <mxPoint x="1400" y="2240" />
            </Array>
          </mxGeometry>
        </mxCell>
        <mxCell id="un479x4jC4dVIiOcwHKK-25" value="" style="endArrow=none;html=1;rounded=0;exitX=1;exitY=0.5;exitDx=0;exitDy=0;entryX=0;entryY=0.3333333333333333;entryDx=0;entryDy=0;entryPerimeter=0;" parent="1" source="tE9FmHmqxmhy-zkVICbS-145" target="9RwmldyZn9qF8lHCk9Uj-51" edge="1">
          <mxGeometry width="50" height="50" relative="1" as="geometry">
            <mxPoint x="1411" y="2205" as="sourcePoint" />
            <mxPoint x="1601" y="2090" as="targetPoint" />
            <Array as="points">
              <mxPoint x="1400" y="2260" />
            </Array>
          </mxGeometry>
        </mxCell>
        <mxCell id="un479x4jC4dVIiOcwHKK-26" value="" style="endArrow=none;html=1;rounded=0;exitX=1;exitY=0.5;exitDx=0;exitDy=0;entryX=0;entryY=0.3333333333333333;entryDx=0;entryDy=0;entryPerimeter=0;" parent="1" source="tE9FmHmqxmhy-zkVICbS-147" target="9RwmldyZn9qF8lHCk9Uj-51" edge="1">
          <mxGeometry width="50" height="50" relative="1" as="geometry">
            <mxPoint x="1201" y="2425" as="sourcePoint" />
            <mxPoint x="1601" y="2090" as="targetPoint" />
            <Array as="points" />
          </mxGeometry>
        </mxCell>
        <mxCell id="un479x4jC4dVIiOcwHKK-27" value="" style="endArrow=none;html=1;rounded=0;exitX=1;exitY=0.5;exitDx=0;exitDy=0;entryX=0;entryY=0.3333333333333333;entryDx=0;entryDy=0;entryPerimeter=0;" parent="1" source="tE9FmHmqxmhy-zkVICbS-226" target="9RwmldyZn9qF8lHCk9Uj-51" edge="1">
          <mxGeometry width="50" height="50" relative="1" as="geometry">
            <mxPoint x="1203" y="2497" as="sourcePoint" />
            <mxPoint x="1601" y="2090" as="targetPoint" />
            <Array as="points" />
          </mxGeometry>
        </mxCell>
        <mxCell id="un479x4jC4dVIiOcwHKK-28" value="" style="endArrow=none;html=1;rounded=0;exitX=1;exitY=0.5;exitDx=0;exitDy=0;entryX=0;entryY=0.3333333333333333;entryDx=0;entryDy=0;entryPerimeter=0;" parent="1" source="tE9FmHmqxmhy-zkVICbS-232" target="9RwmldyZn9qF8lHCk9Uj-51" edge="1">
          <mxGeometry width="50" height="50" relative="1" as="geometry">
            <mxPoint x="1191" y="2565" as="sourcePoint" />
            <mxPoint x="1611" y="2100" as="targetPoint" />
            <Array as="points" />
          </mxGeometry>
        </mxCell>
        <mxCell id="un479x4jC4dVIiOcwHKK-29" value="" style="endArrow=none;html=1;rounded=0;exitX=1;exitY=0.5;exitDx=0;exitDy=0;entryX=0;entryY=0.3333333333333333;entryDx=0;entryDy=0;entryPerimeter=0;" parent="1" source="tE9FmHmqxmhy-zkVICbS-236" target="9RwmldyZn9qF8lHCk9Uj-51" edge="1">
          <mxGeometry width="50" height="50" relative="1" as="geometry">
            <mxPoint x="1201" y="2635" as="sourcePoint" />
            <mxPoint x="1621" y="2110" as="targetPoint" />
            <Array as="points" />
          </mxGeometry>
        </mxCell>
        <mxCell id="un479x4jC4dVIiOcwHKK-30" value="" style="endArrow=none;html=1;rounded=0;exitX=1;exitY=0.5;exitDx=0;exitDy=0;entryX=0;entryY=0.3333333333333333;entryDx=0;entryDy=0;entryPerimeter=0;" parent="1" source="tE9FmHmqxmhy-zkVICbS-150" target="9RwmldyZn9qF8lHCk9Uj-51" edge="1">
          <mxGeometry width="50" height="50" relative="1" as="geometry">
            <mxPoint x="1181" y="2725" as="sourcePoint" />
            <mxPoint x="1631" y="2120" as="targetPoint" />
            <Array as="points" />
          </mxGeometry>
        </mxCell>
        <mxCell id="un479x4jC4dVIiOcwHKK-31" value="" style="endArrow=none;html=1;rounded=0;exitX=1;exitY=0.5;exitDx=0;exitDy=0;entryX=0;entryY=0.3333333333333333;entryDx=0;entryDy=0;entryPerimeter=0;" parent="1" source="tE9FmHmqxmhy-zkVICbS-163" target="9RwmldyZn9qF8lHCk9Uj-51" edge="1">
          <mxGeometry width="50" height="50" relative="1" as="geometry">
            <mxPoint x="1201" y="2805" as="sourcePoint" />
            <mxPoint x="1641" y="2130" as="targetPoint" />
            <Array as="points" />
          </mxGeometry>
        </mxCell>
        <mxCell id="un479x4jC4dVIiOcwHKK-32" value="" style="endArrow=none;html=1;rounded=0;exitX=1;exitY=0.5;exitDx=0;exitDy=0;entryX=0;entryY=0.3333333333333333;entryDx=0;entryDy=0;entryPerimeter=0;" parent="1" source="tE9FmHmqxmhy-zkVICbS-162" target="9RwmldyZn9qF8lHCk9Uj-51" edge="1">
          <mxGeometry width="50" height="50" relative="1" as="geometry">
            <mxPoint x="1171" y="2875" as="sourcePoint" />
            <mxPoint x="1651" y="2140" as="targetPoint" />
            <Array as="points" />
          </mxGeometry>
        </mxCell>
        <mxCell id="un479x4jC4dVIiOcwHKK-33" value="" style="endArrow=none;html=1;rounded=0;exitX=1;exitY=0.5;exitDx=0;exitDy=0;entryX=0;entryY=0.3333333333333333;entryDx=0;entryDy=0;entryPerimeter=0;" parent="1" source="tE9FmHmqxmhy-zkVICbS-246" target="9RwmldyZn9qF8lHCk9Uj-51" edge="1">
          <mxGeometry width="50" height="50" relative="1" as="geometry">
            <mxPoint x="1211" y="2940" as="sourcePoint" />
            <mxPoint x="1661" y="2150" as="targetPoint" />
            <Array as="points" />
          </mxGeometry>
        </mxCell>
        <mxCell id="un479x4jC4dVIiOcwHKK-34" value="" style="endArrow=none;html=1;rounded=0;exitX=1;exitY=0.5;exitDx=0;exitDy=0;entryX=0;entryY=0.3333333333333333;entryDx=0;entryDy=0;entryPerimeter=0;" parent="1" source="tE9FmHmqxmhy-zkVICbS-148" target="9RwmldyZn9qF8lHCk9Uj-51" edge="1">
          <mxGeometry width="50" height="50" relative="1" as="geometry">
            <mxPoint x="1211" y="3010" as="sourcePoint" />
            <mxPoint x="1590" y="2090" as="targetPoint" />
            <Array as="points" />
          </mxGeometry>
        </mxCell>
        <mxCell id="un479x4jC4dVIiOcwHKK-35" value="" style="endArrow=none;html=1;rounded=0;exitX=1;exitY=0.5;exitDx=0;exitDy=0;entryX=0;entryY=0.3333333333333333;entryDx=0;entryDy=0;entryPerimeter=0;" parent="1" source="tE9FmHmqxmhy-zkVICbS-158" target="9RwmldyZn9qF8lHCk9Uj-51" edge="1">
          <mxGeometry width="50" height="50" relative="1" as="geometry">
            <mxPoint x="1191" y="3085" as="sourcePoint" />
            <mxPoint x="1681" y="2170" as="targetPoint" />
            <Array as="points" />
          </mxGeometry>
        </mxCell>
        <mxCell id="un479x4jC4dVIiOcwHKK-36" value="" style="endArrow=none;html=1;rounded=0;entryX=0;entryY=0.3333333333333333;entryDx=0;entryDy=0;entryPerimeter=0;exitX=1;exitY=0.5;exitDx=0;exitDy=0;" parent="1" source="tE9FmHmqxmhy-zkVICbS-164" target="9RwmldyZn9qF8lHCk9Uj-51" edge="1">
          <mxGeometry width="50" height="50" relative="1" as="geometry">
            <mxPoint x="1221" y="3245" as="sourcePoint" />
            <mxPoint x="1691" y="2180" as="targetPoint" />
            <Array as="points" />
          </mxGeometry>
        </mxCell>
        <mxCell id="un479x4jC4dVIiOcwHKK-37" value="" style="endArrow=none;html=1;rounded=0;entryX=0;entryY=0.3333333333333333;entryDx=0;entryDy=0;entryPerimeter=0;exitX=1;exitY=0.5;exitDx=0;exitDy=0;" parent="1" source="tE9FmHmqxmhy-zkVICbS-153" target="9RwmldyZn9qF8lHCk9Uj-51" edge="1">
          <mxGeometry width="50" height="50" relative="1" as="geometry">
            <mxPoint x="1220" y="3325" as="sourcePoint" />
            <mxPoint x="1701" y="2190" as="targetPoint" />
            <Array as="points" />
          </mxGeometry>
        </mxCell>
        <mxCell id="un479x4jC4dVIiOcwHKK-38" value="" style="endArrow=none;html=1;rounded=0;exitX=1;exitY=0.5;exitDx=0;exitDy=0;entryX=0;entryY=0.3333333333333333;entryDx=0;entryDy=0;entryPerimeter=0;" parent="1" source="tE9FmHmqxmhy-zkVICbS-157" target="9RwmldyZn9qF8lHCk9Uj-51" edge="1">
          <mxGeometry width="50" height="50" relative="1" as="geometry">
            <mxPoint x="1220" y="3395" as="sourcePoint" />
            <mxPoint x="1711" y="2200" as="targetPoint" />
            <Array as="points" />
          </mxGeometry>
        </mxCell>
        <mxCell id="un479x4jC4dVIiOcwHKK-39" value="" style="endArrow=none;html=1;rounded=0;entryX=0;entryY=0.3333333333333333;entryDx=0;entryDy=0;entryPerimeter=0;exitX=1;exitY=0.5;exitDx=0;exitDy=0;" parent="1" source="tE9FmHmqxmhy-zkVICbS-161" target="9RwmldyZn9qF8lHCk9Uj-51" edge="1">
          <mxGeometry width="50" height="50" relative="1" as="geometry">
            <mxPoint x="1210" y="3455" as="sourcePoint" />
            <mxPoint x="1721" y="2210" as="targetPoint" />
            <Array as="points" />
          </mxGeometry>
        </mxCell>
        <mxCell id="un479x4jC4dVIiOcwHKK-40" value="" style="endArrow=none;html=1;rounded=0;entryX=0;entryY=0.3333333333333333;entryDx=0;entryDy=0;entryPerimeter=0;exitX=1;exitY=0.5;exitDx=0;exitDy=0;" parent="1" source="tE9FmHmqxmhy-zkVICbS-146" target="9RwmldyZn9qF8lHCk9Uj-51" edge="1">
          <mxGeometry width="50" height="50" relative="1" as="geometry">
            <mxPoint x="1240" y="3515" as="sourcePoint" />
            <mxPoint x="1731" y="2220" as="targetPoint" />
            <Array as="points" />
          </mxGeometry>
        </mxCell>
        <mxCell id="un479x4jC4dVIiOcwHKK-41" value="" style="endArrow=none;html=1;rounded=0;entryX=0;entryY=0.3333333333333333;entryDx=0;entryDy=0;entryPerimeter=0;exitX=1;exitY=0.5;exitDx=0;exitDy=0;" parent="1" source="tE9FmHmqxmhy-zkVICbS-152" target="9RwmldyZn9qF8lHCk9Uj-51" edge="1">
          <mxGeometry width="50" height="50" relative="1" as="geometry">
            <mxPoint x="1270" y="3585" as="sourcePoint" />
            <mxPoint x="1741" y="2230" as="targetPoint" />
            <Array as="points" />
          </mxGeometry>
        </mxCell>
        <mxCell id="un479x4jC4dVIiOcwHKK-42" value="" style="endArrow=none;html=1;rounded=0;exitX=1;exitY=0.5;exitDx=0;exitDy=0;entryX=0;entryY=0.3333333333333333;entryDx=0;entryDy=0;entryPerimeter=0;" parent="1" source="tE9FmHmqxmhy-zkVICbS-128" target="9RwmldyZn9qF8lHCk9Uj-51" edge="1">
          <mxGeometry width="50" height="50" relative="1" as="geometry">
            <mxPoint x="1191" y="2005" as="sourcePoint" />
            <mxPoint x="1601" y="2090" as="targetPoint" />
          </mxGeometry>
        </mxCell>
        <mxCell id="un479x4jC4dVIiOcwHKK-43" value="" style="endArrow=none;html=1;rounded=0;exitX=1;exitY=0.5;exitDx=0;exitDy=0;entryX=0;entryY=0.3333333333333333;entryDx=0;entryDy=0;entryPerimeter=0;" parent="1" source="tE9FmHmqxmhy-zkVICbS-221" target="9RwmldyZn9qF8lHCk9Uj-51" edge="1">
          <mxGeometry width="50" height="50" relative="1" as="geometry">
            <mxPoint x="871" y="2045" as="sourcePoint" />
            <mxPoint x="1601" y="2090" as="targetPoint" />
            <Array as="points">
              <mxPoint x="1170" y="2060" />
            </Array>
          </mxGeometry>
        </mxCell>
      </root>
    </mxGraphModel>
  </diagram>
</mxfile>
